<?xml version="1.0" encoding="UTF-8"?>
<svg id="_레이어_2" data-name="레이어 2" xmlns="http://www.w3.org/2000/svg" viewBox="0 0 50 50">
  <defs>
    <style>
      .cls-1 {
        fill: var(--brand-color);
        stroke-width: 0px;
      }
    </style>
  </defs>
  <g id="_레이어_1-2" data-name="레이어 1">
    <g>
      <circle class="cls-1" cx="29.86" cy="27.32" r="1.5"/>
      <path class="cls-1" d="M25,0C11.19,0,0,11.19,0,25s11.19,25,25,25,25-11.19,25-25S38.81,0,25,0ZM17.56,30.13c-.12,0-.24,0-.36,0-.84,1.2-2.03,2.17-3.39,2.74-.21.09-.44-.11-.37-.33.27-.9.44-1.83.52-2.77-3.67-.87-5.43-3.31-5.43-7.75,0-5.7,2.91-8.11,9.03-8.11,3.85,0,6.42.95,7.81,3.07-1.72.42-3.11,1.11-4.2,2.07-2.03,1.79-3.01,4.49-3.01,8.27,0,1.01.07,1.94.21,2.8-.26.01-.53.02-.81.02ZM34.67,37.02c.09,1.18.31,2.34.65,3.47.08.28-.2.53-.46.41-1.7-.72-3.18-1.92-4.24-3.43-.15,0-.3,0-.45,0-7.67,0-11.31-3.02-11.31-10.16s3.64-10.16,11.31-10.16,11.31,3.02,11.31,10.16c0,5.56-2.21,8.62-6.8,9.7Z"/>
      <path class="cls-1" d="M34.21,25.81c-.83,0-1.51.67-1.51,1.5s.67,1.51,1.51,1.51,1.5-.67,1.5-1.51-.67-1.5-1.5-1.5Z"/>
      <path class="cls-1" d="M25.5,25.81c-.83,0-1.5.67-1.5,1.5s.67,1.51,1.5,1.51,1.51-.67,1.51-1.51-.67-1.5-1.51-1.5Z"/>
    </g>
  </g>
</svg>