<?xml version="1.0" encoding="UTF-8"?>
<svg id="_레이어_2" data-name="레이어 2" xmlns="http://www.w3.org/2000/svg" viewBox="0 0 1280.84 224.75">
  <defs>
    <style>
      .cls-1 {
        fill: #f7f3e6;
        stroke-width: 0px;
      }
    </style>
  </defs>
  <g id="_레이어_1-2" data-name="레이어 1">
    <path class="cls-1" d="M58.72,224.75C23.43,224.75,0,201.46,0,179.6V45.15C0,23.29,23.72,0,58.72,0c34.58,0,57.15,23.29,57.15,45.15v41.58s-47.15,0-47.15,0v-35.01c0-5.72-4.57-9.29-10-9.29-6.14,0-10.43,3.57-10.43,9.29v121.45c0,5.72,4.57,9.29,10.43,9.29,5.43,0,10-3.57,10-9.29v-35.01s47.29,0,47.29,0v41.58c.14,21.72-22.43,45.01-57.3,45.01ZM175.6,124.73v95.87s-46.15,0-46.15,0V57.87s43.15,0,43.15,0l3,17.15c6.72-10.14,16.29-17.15,37.29-17.15v38.72c-25-.29-37.29,13.43-37.29,28.15ZM277.9,223.32c-30.72,0-55.58-15.86-55.58-39.72v-85.87c0-24.43,25.15-40.01,55.58-40.01,30.43,0,55.58,15.86,55.58,40.01v85.73c0,24.29-25.15,39.86-55.58,39.86ZM287.62,99.73c0-5.43-4.57-7.86-10-7.86s-9.72,2.43-9.72,7.86v81.58c0,5.43,4,7.86,9.72,7.86,5.43,0,10-2.43,10-7.86v-81.58ZM399.06,223.32c-33.72,0-53.58-15.86-53.58-39.72v-16.57s41.86,0,41.86,0v13.86c0,5.43,4,9.29,10.86,9.29,6.72,0,10.57-2.71,10.57-12,0-14.43-10.57-18.72-35.01-31.43-22.58-11.29-27.86-27.29-27.86-44.58,0-33.43,24.15-44.15,52.72-44.15,31.01,0,52.29,15.86,52.29,40.01v14.86s-41.58,0-41.58,0v-12.43c0-5.43-3-8.57-9.72-8.57-7.29,0-10.57,3.14-10.57,11.14,0,12,6.72,13.15,24.43,22.43,33.29,16.57,38.43,37.29,38.43,54.01,0,22.86-15.15,43.86-52.87,43.86ZM515.94,223.32c-33.72,0-53.58-15.86-53.58-39.72v-16.57s41.86,0,41.86,0v13.86c0,5.43,4,9.29,10.86,9.29,6.86,0,10.57-2.71,10.57-12,0-14.43-10.57-18.72-35.01-31.43-22.58-11.29-27.86-27.29-27.86-44.58,0-33.43,24.15-44.15,52.72-44.15,31.01,0,52.29,15.86,52.29,40.01v14.86s-41.58,0-41.58,0v-12.43c0-5.43-3-8.57-9.72-8.57-7.29,0-10.57,3.14-10.57,11.14,0,12,6.72,13.15,24.43,22.43,33.29,16.57,38.43,37.29,38.43,54.01,0,22.86-15.43,43.86-52.87,43.86ZM629.39,42.29v49.29h34.86s0,40.01,0,40.01h-34.86v88.87s-47.72,0-47.72,0V3.86s94.3,0,94.3,0v38.72s-46.58-.29-46.58-.29h0ZM686.54,42.29V3.86s45.86,0,45.86,0v38.72s-45.86-.29-45.86-.29h0ZM686.54,220.61V60.87s45.86,0,45.86,0v159.88s-45.86,0-45.86,0v-.14ZM809.42,93.16v83.01c0,4.57,4.57,7.86,9.72,7.86h12s0,36.58,0,36.58h-21.86c-29.15,0-45.44-20.15-45.44-40.44v-87.01h-20s0-32.29,0-32.29h19.86v-27.58s45.72,0,45.72,0v27.86h23.72s0,32.58,0,32.58l-23.72-.57h0Z"/>
    <g>
      <polygon class="cls-1" points="1026.3 66.05 1026.3 66.05 1026.3 66.05 1026.3 66.05"/>
      <path class="cls-1" d="M1276.63,192.56c-2.18,0-3.28,1.56-3.39,1.71s-.27.37-.36.5c-.11.15-.3.46-.41.63-1.68,2.68-4.02,5.53-5.96,7.39-1.24,1.19-3.21,2.58-4.37,3.32-.83.53-2.54,1.43-3.52,1.81-1.18.46-2.7.92-4.03,1.08-.41.05-.98.1-1.6.13-.7.03-1.39.02-2.01-.04-1.1-.1-2.55-.38-3.7-.83-1.11-.45-2.23-1.18-2.89-1.78-.65-.59-1.42-1.56-1.73-2.1-.43-.76-.72-1.59-.82-2.21-.02-.14-.03-.3-.03-.35-.04-1.02.4-1.87,1.05-2.45.56-.5,1.3-.79,2.16-.77,2.34.06,4.73-.16,7.19-.74,3.49-.82,6.61-2.48,8.83-4.05,2.72-1.92,5.41-4.76,7.54-8.01,1.38-2.1,2.49-4.65,3.06-6.7.52-1.87.95-4.67.67-7.74-.32-3.62-1.93-6.91-3.88-9.24-.89-1.02-2.44-2.46-4.1-3.52-2.23-1.43-4.76-2.37-7.61-2.98-2.27-.49-4.91-.71-7.52-.62-.18,0-.51.02-.72.03-3.26.18-6.88.99-9.61,2.04-5.08,1.94-9.79,4.85-14.28,9.28-3.57,3.52-6.79,8.38-9.06,13.59-1.6,3.69-2.62,7.58-3.16,11.34l-.08.5c-.24,1.56-1.56,2.63-3.06,2.63-1,0-1.95-.52-2.49-1.3-.04-.06-.25-.37-.3-.46-.28-.45-.62-1.09-.8-1.44-.24-.44-.84-1.6-.93-1.79-1.65-3.3-2.72-6.07-2.61-8.85.11-2.92,1.93-5.36,3.16-6.84.58-.7,1.71-2.18,2.22-2.95.85-1.27,1.57-2.62,1.57-4.38,0-6.16-9.56-11.42-22.02-11.42-4.67,0-8.31.7-10.95,1.51-3.48,1.06-10.26,3.6-11.67,10.33-.2.93-.4,2.66-.59,3.76-.33,1.93-.66,3.54-.73,3.86-1.94,8.27-6.47,17.66-11.82,23.82-1.2,1.38-3.18,3.46-4.98,4.94-3.24,2.65-4.69,3.29-6.34,4.11-1.16.58-3.56,1.34-4.94,1.59-1.25.23-2.96.31-4.29.19-1.1-.1-2.55-.38-3.7-.83-1.11-.45-2.23-1.18-2.89-1.78-.65-.59-1.42-1.56-1.73-2.1-.43-.76-.72-1.59-.82-2.21-.02-.14-.03-.3-.03-.35-.04-1.02.4-1.87,1.05-2.45.56-.5,1.3-.79,2.16-.77,2.34.06,4.73-.16,7.19-.74,3.49-.82,6.61-2.48,8.83-4.05,2.72-1.92,5.41-4.76,7.54-8.01,1.38-2.1,2.49-4.65,3.06-6.7.52-1.87.95-4.67.67-7.74-.32-3.62-1.93-6.91-3.88-9.24-.89-1.02-2.44-2.46-4.1-3.52-1.07-.69-2.21-1.26-3.42-1.74-.38-.15-.86-.32-1.15-.42s-.8-.31-1.13-.44c-2.16-.91-3.52-2.66-3.52-4.93s1.28-3.84,3.13-4.8c.22-.11.33-.17.45-.23.11-.05.28-.13.42-.2,6.24-2.96,10.82-8.35,13.56-12.21,3.06-4.31,6.33-10.81,9.44-19.01,3.05-8.05,7.2-11.85,10.46-15.48,11.45-12.74,17.04-21.62,20.7-27.5,0,0,.6-.94.6-2.19,0-2.4-1.93-4.3-4.33-4.3-1.83,0-2.93,1.2-3.69,2.14-1.56,1.94-4.87,6.92-7.91,9.37-.56.44-1.27.73-2.02.73-1.52,0-2.78-1.1-3.03-2.55-.03-.17-.05-.39-.04-.52,0-.14.02-.41.04-.55.02-.13.05-.34.08-.51.36-2.2.52-3.32.83-5.64.51-3.9.89-7.43,1.04-9.87.03-.42.05-1.26.04-1.69,0-.23-.04-.91-.04-.98-.07-4.3-2.08-7.37-4.06-9.24-1.21-1.14-2.62-1.99-4.08-2.52-1.44-.53-2.92-.73-4.22-.73-1.84,0-3.44.34-5.17,1.11-.95.43-1.8.95-1.97,1.04-1.32.75-2.6,1.39-4.32,1.39-2.04,0-3.25-.66-4.83-1.34-1.57-.68-5.04-2.2-10.16-2.2-7.68,0-13.28,3.08-18.45,8.04-2.21,2.26-4.1,4.93-5.71,7.84-.06.1-.28.5-.33.6-2.73,4.78-6.83,14.03-9.02,18.71-1.62,3.47-4.94,10.41-7.43,13.31-.45.53-1.29,1.43-2.07,1.94-.9.58-1.56.8-2.48.8-1.47,0-2.76-.95-3.09-2.42-.3-1.37.2-2.89.85-4.55.34-.86.93-2.26,1.28-3.1,1.02-2.44,2.31-5.37,3.08-7.21.77-1.84,2.27-5.54,2.99-7.4.86-2.24,2.35-6.42,3.11-9.07.4-1.41.7-3.03.7-4.13,0-2.01-.61-3.82-1.42-5.15-.09-.16-.24-.4-.33-.53-.1-.15-.38-.55-.42-.6-.44-.6-.81-1.25-.98-1.99-.28-1.21-.02-2.6.97-3.67.49-.53,1.13-.93,1.95-1.26.29-.12.78-.31,1.15-.48h0c3.43-1.45,6.29-4.24,7.75-7.98,2.85-7.35-.8-15.62-8.15-18.48-7.35-2.85-15.62.8-18.48,8.15-1.46,3.77-1.21,7.78.37,11.18.16.36.37.79.5,1.05.38.79.59,1.52.59,2.25.01,1.46-.73,2.66-1.76,3.37-.62.42-1.33.66-2.06.81-.17.03-.49.09-.65.12s-.48.1-.68.14c-.54.12-1.08.3-1.61.52-2.06.87-3.93,2.48-5.1,4.78-.56,1.09-.95,2.15-1.21,2.88-.33.93-.99,2.81-1.31,3.75-.3.88-.76,2.33-1.13,3.55-.15.5-.29,1.01-.44,1.52h0c-2.57,8.58-4.99,14-7.19,16.3-.04.05-.16.16-.22.21-.06.06-.2.18-.25.22-.33.28-1.09.88-2.22.88-1.66,0-3.04-1.32-3.04-3.04,0-1.03.18-2.68.21-3.79.04-1.9-.02-3.75-.26-5.55-1.45-10.89-7.83-19.69-17.16-21.96-1.47-.36-2.97-.53-4.47-.53-2.83,0-5.63.61-8.02,1.78-.19.09-.56.27-.94.47-.49.25-.99.43-1.59.43-1.74,0-3.05-1.41-3.05-3.05,0-.7.25-1.28.42-1.67,1.19-2.81,2.45-5.58,3.78-8.34,1.82-3.79,3.37-6.46,4.45-8.62.91-1.84,2.11-4.3,2.11-8.01C1029.3,7.48,1022.79,0,1013.71,0c-8.24,0-12.99,6.07-14.33,9.44-.22.56-.5,1.12-.74,1.73-.54,1.34-1.08,2.81-1.61,4.36-1.57,4.59-3.09,9.83-4.55,15.72-1.46,5.9-2.79,12.09-3.98,18.57-1.2,6.49-2.22,12.86-3.08,19.12-.85,6.26-1.46,12.08-1.83,17.46-.3,4.52-.62,8.52-.51,11.88.02.51.05,1.12.08,1.49s.08.85.18,1.46c.26,1.51.68,2.75.79,3.66.04.34.13,1.2-.08,2.22-.21,1-.69,2.14-1.6,3.11-.64.68-1.36,1.14-1.85,1.38-1.39.69-3.02.75-4.19.75-.03,0-.62,0-.83,0-.19,0-.63.02-.8.03-6.43.46-11.09,4.71-13.13,9.35-.77,1.75-1.61,3.88-2.38,6.13-1.57,4.59-3.09,9.83-4.55,15.72-1.46,5.9-3.98,18.57-3.98,18.57,0,0-1.44,8.47-1.97,11.29-1.55,8.26-3.54,14.46-6,18.71-3.26,5.63-6.92,9.04-10.18,11.2-3.14,2.09-7.13,3.97-12.13,4.22-2.66.13-7.15-.18-10.61-3.55-2.89-2.82-3.92-6.46-3.8-10.07.08-2.47.51-5.72,2.24-9.63,1.16-2.61,3.51-6.08,5.64-7.65.58-.43,1.46-1.05,2.64-1.05,1.67,0,3.04,1.34,3.04,3.03,0,.31-.06.71-.09.94-.05.4-.11.94-.08,1.6.22,4.86,4.31,8.11,8.59,7.96,2.93-.1,4.94-1.65,6.24-3.14,1.12-1.29,1.84-2.71,2.25-3.75.77-1.94,1.24-3.91,1.38-6.54.16-3.01-.48-5.63-1.28-7.77-1.02-2.7-2.8-5.17-4.11-6.5-1.2-1.23-2.84-2.68-5.11-3.83-3.89-1.98-7.33-2.47-10.31-2.65-.92-.06-2.02-.07-3.09-.02-3.35.14-8.15.93-13.18,3.37-6.42,3.12-10.62,7.07-13.19,10.06-4.28,4.99-6.44,9.9-7.73,13.2-1.04,2.66-3.69,10.68-2.93,19.11.42,4.65,1.93,8.65,3.59,11.36,2.21,3.6,4.88,6.41,9.07,8.8,7.39,4.23,16.57,3.84,16.97,3.84,1.95,0,6.27-.2,11.05-1.46,7.7-2.04,13.07-5.63,18.01-9.48,0,0,2.2-1.88,3.02-2.39.37-.23,1.15-.82,2.57-.82,2.09,0,3.31,1.34,3.93,2.77.17.4.36.97.45,1.22.39,1.05.82,2.27,1.42,3.41,2.26,4.32,6.39,6.76,10.62,6.76,7.39,0,10.9-5.23,11.99-8.32.52-1.48.78-3.44.89-4.18.95-6.51,2.07-12.6,3.48-17.11,1.79-5.77,3.65-10.33,5.5-13.52.24-.42.65-1.09,1.05-1.61.87-1.15,1.88-1.84,3.35-1.83,1.87.01,3.54,1.44,3.14,4.16-.07.47-.27,1.4-.38,1.86-.15.65-.48,1.93-.66,2.58-.59,2.08-1.61,6.25-2.06,8.35-.3,1.36-1.36,5.31-1.44,9.57-.08,4.58.65,6.98,1.5,9.13,1.07,2.72,2.85,5.54,5.83,7.7,2.7,1.96,6.35,3.23,10.46,3.23,6.54,0,10.98-2.37,14.02-4.44s5.53-4.84,7.12-6.73c.03-.03.71-.8.9-1.01,1.32-1.45,2.74-1.48,3.24-1.48.82,0,2.1.23,3.18,1.42.1.12.27.31.35.42.23.29.67.89.9,1.19.29.38.98,1.26,1.19,1.5,1.08,1.25,2.31,2.4,3.69,3.45,6.7,5.08,14.9,5.68,19.79,5.68,5.64,0,10.19-1.13,14-2.47,3.35-1.18,7.55-3.02,12.34-6.87.8-.64,1.54-1.28,2.26-1.92,0,0,1.31-1.2,1.74-1.6.4-.37,1.18-1.12,1.58-1.49.28-.26.79-.74,1.17-1.02.32-.24,1.21-.86,2.57-.86,1.66,0,2.76.85,3.53,1.83.17.21.72.96.96,1.29.47.66,1.03,1.52,1.89,2.58,1.34,1.79,2.96,3.42,4.86,4.84,6.4,4.76,14.15,5.68,19.79,5.68,3,0,6.93-.61,9.28-1.22,6.88-1.78,12.38-5.09,16.87-9.06.25-.22.57-.5.76-.67.18-.16.9-.84,1.45-1.18,1.1-.68,2.17-.63,2.23-.63,1.03,0,2.15.36,3.14,1.4.25.26,1.19,1.35,1.59,1.84,1,1.21,2.47,2.69,3.98,3.83,6.7,5.08,14.9,5.68,19.79,5.68.38,0,.72-.01,1.04-.03,5.15-.13,9.39-1.19,12.95-2.45,3.35-1.18,7.55-3.02,12.34-6.87.83-.67,1.6-1.34,2.35-2,.17-.15,1.09-1,1.75-1.35.83-.44,1.53-.5,2.01-.5,1.06,0,2.17.37,3.12,1.37.28.29.7.9.99,1.29,1.34,1.79,2.94,3.42,4.83,4.85,6.7,5.08,14.9,5.68,19.79,5.68,3.88,0,7.37-.65,8.26-.82,11.6-2.22,21.66-9.92,28.78-21.66.35-.58,2.14-3.5,2.14-5.5,0-2.32-1.88-4.21-4.21-4.21ZM1133.61,75.8c5.26-14.45,8.47-15.21,10.51-14.47,2.04.74,4.01,3.38-1.25,17.84-5.26,14.47-8.47,15.21-10.51,14.47s-4.02-3.37,1.25-17.84ZM1015.1,75.78c5.26-14.47,8.47-15.21,10.51-14.47s4.02,3.37-1.25,17.84c-5.26,14.45-8.47,15.21-10.51,14.47-2.04-.74-4.01-3.38,1.25-17.84ZM1104.34,166.35c-4.51,4.46-7.7,10.15-10.1,15.68-2.95,6.8-6.65,12.93-9.84,16.44-1.41,1.56-3.64,3.89-6.11,5.78-1.2.92-3.2,2.26-5.03,3.05-2.14.93-3.56,1.34-4.94,1.59-1.25.23-2.96.31-4.29.19-1.1-.1-2.55-.38-3.7-.83-1.11-.45-2.23-1.18-2.89-1.78-.65-.59-1.42-1.56-1.73-2.1-.43-.76-.72-1.59-.82-2.21-.02-.14-.03-.3-.03-.35-.04-1.02.4-1.87,1.05-2.45.56-.5,1.3-.79,2.16-.77,2.34.06,4.73-.16,7.19-.74,3.49-.82,6.61-2.48,8.83-4.05,2.72-1.92,5.41-4.76,7.54-8.01,1.38-2.1,2.49-4.65,3.06-6.7.52-1.87.95-4.67.67-7.74-.32-3.62-1.93-6.91-3.88-9.24-.89-1.02-2.44-2.46-4.1-3.52-2.23-1.43-4.76-2.37-7.61-2.98-2.27-.49-4.91-.71-7.52-.62-.18,0-.51.02-.72.03-3.26.18-6.88.99-9.61,2.04-5.08,1.94-9.79,4.85-14.28,9.28-3.18,3.13-6.07,7.33-8.27,11.88-.04.08-.08.15-.12.23-1.28,2.61-4.95,10.76-5.4,11.71-1.21,2.59-2.78,5.69-4.37,8.46-1.04,1.8-2.41,3.71-3.16,4.47-.82.84-1.92,1.67-3.08,1.89-.67.13-1.34.09-1.85-.08-.81-.26-1.25-.73-1.53-1.11-.42-.55-.57-1.19-.61-1.78-.02-.32.03-.87.11-1.29.08-.43.25-.96.49-1.7.31-.95,1.08-2.74,1.46-3.64.57-1.38,1.97-4.63,2.63-6.17.77-1.81,1.92-4.61,2.93-7.31.43-1.14,1.12-3.39,1.43-4.49.25-.88.64-2.46.82-3.58.11-.66.26-2.18.27-2.71.14-8.37-6.13-15.33-14.33-16.08-.39-.04-.9-.06-1.2-.06-.46-.01-1.38-.02-1.84-.01-.62.01-1.85.08-2.47.16-.63.08-2.09.34-2.49.44-4.43,1.11-8.8,3.08-13.2,5.9-.16.09-.89.6-1.88.6-1.66,0-3-1.33-3.05-2.98,0-.13.03-.5.06-.67.03-.16.11-.44.17-.61,1.76-4.64,3.71-8.88,5.8-13.23,1.82-3.79,3.32-6.46,4.4-8.62.91-1.84,2.16-4.22,2.16-8.01,0-.94-.09-1.87-.25-2.78,0,0-.08-.39-.1-.52-.03-.12-.1-.46-.11-.47-.38-1.57-.85-2.62-1.07-4.31-.23-1.71.36-3.38.96-4.27.36-.53,1.07-1.58,2.49-2.34.43-.23,1.21-.58,2.28-.76.84-.16,1.82-.27,2.42-.39,1.03-.19,1.8-.45,2.36-.68s1.53-.74,2.1-1.07c.16-.1.49-.28.66-.37.32-.18.93-.48,1.31-.63.5-.2,1.57-.53,2.61-.53,1.34,0,2.26.29,3.03.58.82.3,1.46.67,3.22,1.36,2.59,1.02,5.54,1.61,8.73,1.61s5.82-.78,7.95-1.67c0,0,0,0,.01,0,.03-.01.06-.03.09-.04,1.04-.44,1.94-.9,2.67-1.31.06-.03.12-.07.19-.1.04-.02.08-.04.12-.06.02,0,.03-.02.05-.03,1.2-.68,2.14-1.31,2.95-1.84,1.54-1,3.86-2.78,6.5-4.88,3.86-3.07,8.45-6.77,12.09-9.78,1.28-1.06,2.22-1.31,3.2-1.31,2.31,0,3.88,1.76,4.21,3.52.04.21.12.63.15.85.22,1.54.74,5.78,2.67,8.78,2.12,3.3,6.14,7.88,15.44,7.88,8.13,0,14.57-5.89,17.02-8.27.36-.35,1.42-1.41,1.42-1.41,0,0,.93-.96,1.64-1.36,1.05-.58,2.1-.56,2.67-.47.54.09,1.52.3,2.49,1.31.39.41,1.12,1.6,1.45,2.16,1.28,2.25,2.51,3.82,4.7,5.35,2.4,1.67,5.29,2.66,9.13,2.66,1.22,0,3.5-.17,5.55-.92,1.63-.6,3.05-1.48,4.02-2.16,1.14-.81,1.75-1.3,2.86-1.3,1.66,0,3.05,1.32,3.05,3.04,0,.29-.03.6-.22,1.14-.53,1.33-1.24,2.23-2.26,3.23,0,0-.88.87-1.42,1.32-4.9,4.04-8.37,4.94-11.16,6.59-2.51,1.48-4.1,3.01-5.44,5.47-1.35,2.49-2.28,7.15-.32,11.28.94,1.98,2.56,4.06,4.99,5.6.46.31.89.58,1.23.8,1.28.82,2.8,2.16,2.8,4.66,0,2.2-1.26,3.49-1.87,4.03-.38.33-1.16.93-2.78,1.48-.48.16-.95.32-1.4.48-5.08,1.94-9.8,4.85-14.28,9.28ZM1060.08,174.95c6.21-5.59,9.47-4.64,10.52-3.47,1.05,1.17,1.66,4.51-4.55,10.1-6.21,5.59-9.47,4.64-10.52,3.47-1.05-1.17-1.66-4.51,4.55-10.1ZM1126.77,174.95c6.21-5.59,9.47-4.64,10.52-3.47,1.05,1.17,1.66,4.51-4.55,10.1-6.21,5.59-9.47,4.64-10.52,3.47-1.05-1.17-1.66-4.51,4.55-10.1ZM1180.31,205.44c-.17.98-.58,1.74-1.08,2.3-.52.58-1.82,1.57-3.84,1.36-1.13-.12-2.27-.38-3.63-1.05-2.08-1.01-4-2.64-5.76-4.87-.61-.77-1.12-1.6-1.55-2.48-1.48-3.08-1.15-6.09.53-9.64.11-.23,1.02-2.37,2.3-3.77.89-.97,2.3-1.78,3.91-1.61.87.09,2.07.55,3.12,2.09,1.07,1.56,2.4,4.45,3.07,5.99.53,1.23,1.44,3.52,1.92,4.98.18.54.41,1.3.52,1.72.17.66.44,1.94.52,2.63.07.58.11,1.57-.02,2.35ZM1247.03,174.95c6.21-5.59,9.47-4.64,10.52-3.47,1.05,1.17,1.66,4.51-4.55,10.1-6.21,5.59-9.47,4.64-10.52,3.47-1.05-1.17-1.66-4.51,4.55-10.1Z"/>
      <path class="cls-1" d="M1197.55,52.97c-3.1,0-5.62,2.52-5.62,5.62s2.52,5.62,5.62,5.62,5.62-2.52,5.62-5.62-2.52-5.62-5.62-5.62ZM1198.99,61.55l-1.49-2.23h-.83v2.23h-1.15v-5.92h2.34c.44,0,.82.08,1.14.23.32.16.56.37.73.65.17.28.25.6.25.97,0,.28-.05.53-.15.76-.1.23-.25.43-.45.59-.2.16-.43.28-.71.36l1.63,2.36h-1.32ZM1198.79,57.48c0,.29-.1.51-.29.66-.19.16-.49.23-.88.23h-.94v-1.81h.94c.4,0,.69.08.88.24.19.16.29.38.29.67Z"/>
    </g>
  </g>
</svg>