<?xml version="1.0" encoding="UTF-8"?>
<svg id="_레이어_2" data-name="레이어 2" xmlns="http://www.w3.org/2000/svg" viewBox="0 0 297.49 118.46">
  <defs>
    <style>
      .cls-1 {
        fill: none;
      }

      .cls-1, .cls-2 {
        stroke-width: 0px;
      }

      .cls-2 {
        fill: #f7f3e6;
      }
    </style>
  </defs>
  <g id="_레이어_1-2" data-name="레이어 1">
    <g>
      <rect class="cls-1" x="0" y="0" width="297.48" height="118.46"/>
      <g>
        <g>
          <polygon class="cls-2" points="44.15 37.38 34.99 .28 26.94 .28 17.77 37.38 10.86 .28 0 .28 12.63 51.07 22.64 51.07 30.96 17.63 39.29 51.07 48.88 51.07 61.51 .28 51.07 .28 44.15 37.38"/>
          <path class="cls-2" d="M92.78,0h-17c-5.92,0-10.02,4.09-10.02,10.02v31.32c0,5.93,4.09,10.02,10.02,10.02h17c5.92,0,10.02-4.09,10.02-10.02V10.02c0-5.92-4.09-10.02-10.02-10.02ZM92.64,39.36c0,1.55-.85,2.4-2.4,2.4h-11.92c-1.55,0-2.4-.85-2.4-2.4V11.99c0-1.55.85-2.4,2.4-2.4h11.92c1.55,0,2.4.85,2.4,2.4v27.37Z"/>
          <path class="cls-2" d="M135.38.28h-26.45v50.78h26.45c5.92,0,10.02-4.09,10.02-10.02V10.3c0-5.92-4.09-10.02-10.02-10.02ZM135.24,39.08c0,1.55-.85,2.4-2.4,2.4h-13.75V9.87h13.75c1.55,0,2.4.85,2.4,2.4v26.8Z"/>
        </g>
        <g>
          <path class="cls-2" d="M24.62,106.47c0,1.55-.85,2.4-2.4,2.4h-9.66c-1.55,0-2.4-.85-2.4-2.4v-9.17H0v11.14c0,5.93,4.09,10.02,10.02,10.02h14.74c5.92,0,10.02-4.09,10.02-10.02v-41.05h-10.16v39.08Z"/>
          <path class="cls-2" d="M67.92,67.11h-17c-5.93,0-10.02,4.09-10.02,10.02v31.32c0,5.93,4.09,10.02,10.02,10.02h17c5.92,0,10.02-4.09,10.02-10.02v-31.32c0-5.92-4.09-10.02-10.02-10.02ZM67.78,106.47c0,1.55-.85,2.4-2.4,2.4h-11.92c-1.55,0-2.4-.85-2.4-2.4v-27.37c0-1.55.85-2.4,2.4-2.4h11.92c1.55,0,2.4.85,2.4,2.4v27.37Z"/>
          <path class="cls-2" d="M110.17,106.47c0,1.55-.85,2.4-2.4,2.4h-11.14c-1.55,0-2.4-.85-2.4-2.4v-39.08h-10.16v41.05c0,5.93,4.09,10.02,10.02,10.02h16.22c5.93,0,10.02-4.09,10.02-10.02v-41.05h-10.16v39.08Z"/>
          <path class="cls-2" d="M162.36,89.33v-11.92c0-5.92-4.09-10.02-10.02-10.02h-25.89v50.78h10.16v-18.83h8.18l8.18,18.83h10.93l-8.46-19.26c4.23-1.2,6.91-4.8,6.91-9.59ZM152.2,87.49c0,1.55-.85,2.4-2.4,2.4h-13.19v-12.91h13.19c1.55,0,2.4.85,2.4,2.4v8.11Z"/>
          <polygon class="cls-2" points="199.66 102.02 180.97 67.39 170.04 67.39 170.04 118.18 179.56 118.18 179.56 83.54 198.25 118.18 209.19 118.18 209.19 67.39 199.66 67.39 199.66 102.02"/>
          <path class="cls-2" d="M231.68,67.39l-16.36,50.78h10.51l3.39-11.43h16.43l3.32,11.43h10.93l-16.36-50.78h-11.85ZM232.03,97.16l5.5-18.62,5.36,18.62h-10.86Z"/>
          <polygon class="cls-2" points="276.18 108.58 276.18 67.39 266.03 67.39 266.03 118.18 297.49 118.18 297.49 108.58 276.18 108.58"/>
        </g>
      </g>
    </g>
  </g>
</svg>