<?xml version="1.0" encoding="UTF-8"?>
<svg id="_레이어_2" data-name="레이어 2" xmlns="http://www.w3.org/2000/svg" viewBox="0 0 297.48 118.46">
  <defs>
    <style>
      .cls-1 {
        fill: none;
      }

      .cls-1, .cls-2 {
        stroke-width: 0px;
      }

      .cls-2 {
        fill: #f7f3e6;
      }
    </style>
  </defs>
  <g id="_레이어_1-2" data-name="레이어 1">
    <g>
      <rect class="cls-1" x="0" y="0" width="297.48" height="118.46"/>
      <g>
        <path class="cls-2" d="M26.75,67.11H0v51.35h26.75c5.99,0,10.13-4.14,10.13-10.13v-31.1c0-5.99-4.14-10.13-10.13-10.13ZM26.6,106.33c0,1.57-.86,2.42-2.42,2.42h-13.91v-31.95h13.91c1.57,0,2.42.86,2.42,2.43v27.1Z"/>
        <polygon class="cls-2" points="43 118.46 79.88 118.46 79.88 108.76 53.27 108.76 53.27 97.06 75.45 97.06 75.45 87.36 53.27 87.36 53.27 76.81 79.88 76.81 79.88 67.11 43 67.11 43 118.46"/>
        <path class="cls-2" d="M112.75,67.11h-26.75v51.35h10.27v-18.12h16.48c5.99,0,10.13-4.14,10.13-10.13v-12.98c0-5.99-4.14-10.13-10.13-10.13ZM112.61,88.22c0,1.57-.86,2.42-2.42,2.42h-13.91v-13.84h13.91c1.57,0,2.42.86,2.42,2.43v8.99Z"/>
        <polygon class="cls-2" points="129.01 76.66 142.31 76.66 142.31 118.46 152.58 118.46 152.58 76.66 165.88 76.66 165.88 67.11 129.01 67.11 129.01 76.66"/>
        <rect class="cls-2" x="172.01" y="108.04" width="9.98" height="10.41"/>
      </g>
    </g>
  </g>
</svg>