<?xml version="1.0" encoding="UTF-8"?>
<svg id="_레이어_2" data-name="레이어 2" xmlns="http://www.w3.org/2000/svg" viewBox="0 0 684.23 684.23">
  <defs>
    <style>
      .cls-1 {
        fill: #555;
        stroke-width: 0px;
      }
    </style>
  </defs>
  <g id="_레이어_1-2" data-name="레이어 1">
    <g>
      <path class="cls-1" d="M622.74,472.22c-3.61-2.02-6.79-4.45-9.54-7.21-.59-.6-1.47-1.55-2.02-1.99-1.88-1.5-3.89-1.86-5.73-1.61-.82.11-2.01.39-3.35,1.35-1.06.76-2.44,2.46-2.7,2.76-1.14,1.32-2.31,2.67-3.58,4.02-7.34,7.82-14.17,12.03-19.67,14.88-5.86,3.04-12.93,5.9-21.82,7.38-.55.1-1.14.21-1.8.3-8.45,1.19-22.79,2.14-35.62-5.02-2.87-1.6-5.79-3.81-7.81-5.66-.81-.74-2.7-2.4-3.19-2.8-1.97-1.57-4-1.91-5.77-1.66-.12.02-1.98.18-3.71,1.63-.87.73-1.95,2.08-2.22,2.39-.29.34-.78.9-1.16,1.34-6.8,7.96-15.51,15.04-26.98,19.78-3.92,1.62-10.57,3.63-15.76,4.36-9.76,1.37-23.39,1.66-35.62-5.02-3.64-1.99-6.83-4.41-9.59-7.19-1.73-1.64-2.91-2.98-3.89-4.01-.49-.52-1.63-1.67-1.98-2-1.57-1.5-3.69-2.7-6.55-2.3-2.37.33-3.75,1.62-4.25,2.11-.59.58-1.35,1.53-1.77,2.05-.6.73-1.77,2.22-2.37,2.96-.65.8-2.62,3.19-2.62,3.19-1.09,1.28-2.22,2.56-3.44,3.86-7.34,7.82-14.17,12.03-19.67,14.88-6.26,3.24-13.86,6.31-23.61,7.68-8.45,1.19-22.79,2.14-35.62-5.02-2.65-1.48-5.05-3.18-7.23-5.08-.42-.36-1.82-1.71-2.42-2.3-.46-.46-1.37-1.39-1.84-1.84-.17-.16-.5-.45-.71-.64-2.17-1.79-4.43-1.88-5.85-1.68-.87.12-3.32.52-5.25,3.35-.29.42-1.27,1.9-1.31,1.97-2.3,3.66-5.97,9.09-10.68,13.37-4.75,4.32-11.85,9.49-23.18,11.09-7.11,1-13.73-.32-18.88-3.04-5.67-3.01-9.44-7.46-11.95-11.9-1.99-3.51-3.83-7.48-4.81-15.43-.91-7.37-.03-14.47.16-16.9.28-3.75,1.03-11.21,1.54-14.95.16-1.16.41-3.46.51-4.62.07-.83.2-2.49.21-3.32.04-4.81-3.21-6.87-6.45-6.44-2.55.34-4.13,1.77-5.35,3.97-.55,1-1.1,2.24-1.42,3.03-2.42,5.98-4.53,14.31-6.23,24.73-1.34,8.16-1.79,18.96-1.85,30.45,0,1.32.02,4.78-.52,7.46-1.13,5.62-5.93,15.52-18.71,17.31-7.32,1.03-15.05-2.19-20.02-9.11-1.31-1.83-2.35-3.83-3.28-5.55-.22-.41-.68-1.34-1.08-1.99-1.42-2.34-3.85-4.35-7.48-3.84-2.46.35-3.67,1.56-4.25,2.05-1.28,1.09-4.64,4.87-4.64,4.87-7.62,7.86-16.03,15.38-28.86,20.77-7.97,3.35-15.38,4.74-18.76,5.22-.11.01-.56.09-1.3.2,62.74,76.52,158,125.35,264.68,125.35,140.85,0,261.81-85.13,314.26-206.74-8.6,1.03-21.76,1.36-33.64-5.27Z"/>
      <path class="cls-1" d="M52.58,445.27c8.1-5.44,16.21-7.97,21.98-9.03,1.84-.34,3.76-.58,5.35-.71,5.2-.41,11.27-.4,18.48,2.08,4.2,1.44,7.39,3.55,9.76,5.38,2.58,2,6.27,5.83,8.69,10.25,1.92,3.5,3.66,7.89,4.11,13.13.4,4.58.07,8.11-.8,11.64-.46,1.89-1.35,4.53-2.98,7.03-1.89,2.9-4.99,6.06-10.04,6.95-7.37,1.3-15.24-3.32-16.8-11.68-.21-1.12-.23-2.08-.25-2.79,0-.4,0-1.12-.07-1.65-.41-2.91-3.11-4.9-5.99-4.5-2.04.29-3.43,1.59-4.32,2.46-3.3,3.23-6.52,9.81-7.89,14.6-2.04,7.18-2,12.91-1.54,17.2.67,6.28,3.34,12.33,9.03,16.5,6.81,4.99,14.65,4.45,19.22,3.57,8.59-1.65,15.04-5.88,19.96-10.25,5.1-4.53,10.61-11.32,14.88-21.85,3.23-7.95,5.16-19.16,5.83-33.83.23-5,.66-20.01.66-20.01,0,0,1.28-22.55,2.38-33.1,1.09-10.55,2.44-19.99,4.04-28.31.79-4.09,1.72-7.97,2.62-11.19,2.4-8.54,9.44-17.02,20.45-19.38.28-.06,1.04-.2,1.37-.25.37-.06,1.38-.21,1.44-.22,2.04-.3,4.83-.79,7.07-2.32.79-.54,1.93-1.51,2.87-2.85,1.34-1.89,1.9-3.98,2.01-5.76.12-1.83-.26-3.29-.4-3.87-.4-1.55-1.44-3.58-2.25-6.14-.33-1.03-.53-1.86-.67-2.49-.14-.64-.35-1.68-.51-2.56-1.01-5.79-1.43-12.79-2-20.68-.68-9.39-1.04-19.61-1.08-30.64-.05-11.03.18-22.31.68-33.83.49-11.52,1.28-22.55,2.38-33.1,1.09-10.55,2.44-19.99,4.04-28.31.54-2.81,1.11-5.49,1.72-7.94.28-1.11.62-2.16.86-3.17,1.49-6.16,8.24-17.82,22.49-19.82,15.71-2.21,28.78,9.15,30.75,23.17.9,6.43-.56,10.97-1.7,14.38-1.34,4.01-3.38,9-5.6,16-1.62,5.1-3.14,10.18-4.51,15.34-.19.71-.49,1.77-.32,2.99.4,2.84,3.01,4.96,6.03,4.53,1.03-.14,1.86-.57,2.65-1.12.61-.43,1.21-.83,1.52-1.04,3.85-2.61,8.55-4.35,13.45-5.03,2.6-.36,5.25-.43,7.87-.16,16.69,1.66,29.87,15.34,35.03,33.82.85,3.06,1.4,6.25,1.8,9.54.21,1.94.3,4.83.55,6.62.42,2.98,3.13,4.93,6,4.52,1.96-.27,3.12-1.5,3.63-2.06.06-.07.28-.33.37-.44.08-.1.26-.33.33-.42,3.25-4.52,6.12-14.48,8.48-29.96h.01c.13-.91.25-1.83.39-2.73.34-2.2.79-4.82,1.09-6.42.32-1.7,1.01-5.1,1.35-6.8.27-1.33.7-3.25,1.4-5.27,1.46-4.27,4.32-7.52,7.67-9.52.86-.51,1.75-.95,2.66-1.29.33-.12.85-.31,1.13-.41.27-.09.81-.26,1.1-.36,1.23-.43,2.4-1.01,3.37-1.89,1.6-1.46,2.59-3.73,2.22-6.25-.19-1.25-.71-2.47-1.57-3.74-.29-.43-.75-1.11-1.11-1.7-3.56-5.5-4.97-12.38-3.36-19.26,3.15-13.41,16.57-21.74,29.98-18.59,13.41,3.15,21.74,16.57,18.59,29.98-1.6,6.84-5.88,12.34-11.46,15.69h0c-.6.38-1.4.83-1.87,1.1-1.34.76-2.35,1.62-3.07,2.66-1.46,2.09-1.57,4.57-.79,6.58.47,1.22,1.26,2.26,2.18,3.2.08.08.66.69.87.93.18.2.5.57.7.83,1.73,2.1,3.2,5.09,3.71,8.57.28,1.9.15,4.77-.2,7.31-.67,4.76-2.23,12.36-3.17,16.44-.78,3.4-2.48,10.16-3.36,13.53-.88,3.36-2.41,8.75-3.58,13.22-.41,1.54-1.09,4.11-1.47,5.68-.73,3.03-1.22,5.78-.37,8.07.92,2.46,3.38,3.8,5.93,3.44,1.58-.22,2.67-.76,4.09-1.98,1.23-1.06,2.46-2.83,3.11-3.85,3.6-5.64,7.65-18.45,9.61-24.84,2.65-8.63,7.49-25.62,11.05-34.56.07-.18.36-.92.43-1.12,2.08-5.42,4.7-10.49,7.97-14.95,7.73-9.83,16.68-16.52,29.96-18.39,8.86-1.25,15.23.53,18.11,1.33,2.89.8,5.16,1.65,8.68,1.15,2.99-.42,5.04-1.83,7.15-3.45.27-.21,1.61-1.31,3.16-2.28,2.79-1.76,5.49-2.74,8.67-3.18,2.25-.32,4.87-.32,7.48.24,2.66.57,5.31,1.7,7.67,3.37,3.88,2.75,8.1,7.58,9.28,15,.02.11.25,1.29.31,1.68.11.73.28,2.19.34,2.93.33,4.26.54,10.47.6,17.33.03,4.1.03,6.07-.06,9.96,0,.29-.02.67-.01.89,0,.24.03.72.06.96.03.23.11.61.2.89.78,2.44,3.23,4.04,5.85,3.67,1.3-.18,2.46-.86,3.32-1.76,4.65-4.97,9.16-14.39,11.4-18.13,1.08-1.81,2.68-4.15,5.86-4.6,4.15-.58,7.95,2.23,8.53,6.38.3,2.17-.51,3.93-.51,3.93-4.9,11.06-12.41,27.79-29.13,52.61-4.75,7.06-11.01,14.65-14.33,29.32-3.38,14.94-7.46,26.98-11.71,35.19-3.8,7.34-10.41,17.78-20.49,24.42-.23.15-.51.34-.68.45-.18.12-.37.25-.72.5-2.97,2.13-4.79,5.23-4.25,9.07.55,3.93,3.33,6.63,7.29,7.68.6.16,1.55.38,2.06.49.53.11,1.39.28,2.09.45,2.22.53,4.33,1.24,6.35,2.17,3.14,1.44,6.17,3.56,7.95,5.1,3.94,3.55,7.52,8.85,8.96,15.04,1.22,5.25,1.16,10.19.72,13.56-.49,3.69-1.79,8.37-3.67,12.34-2.9,6.13-6.85,11.7-11.09,15.68-3.46,3.25-8.44,6.89-14.28,9.15-4.13,1.6-8.2,2.56-12.26,3.02-1.49.17-2.7.86-3.55,1.86-.99,1.17-1.53,2.74-1.22,4.5.02.09.07.36.14.6.32,1.06,1.02,2.41,1.96,3.63.66.86,2.24,2.36,3.5,3.22,1.28.87,3.4,1.87,5.43,2.37,2.09.51,4.68.64,6.6.54,2.31-.12,5.27-.68,7.37-1.37,2.32-.77,6.28-2.67,8.15-3.95,2.66-1.82,5.02-3.29,9.98-8.65,2.76-2.99,5.68-7.07,7.42-9.75,7.75-11.96,13.31-29.3,14.66-44.09.05-.58.24-3.43.33-6.85.05-1.93,0-4.98.1-6.64.81-12,11.91-18.03,17.68-20.71,4.38-2.04,10.5-4.14,18.58-5.28,21.55-3.03,39.37,3.74,40.87,14.4.43,3.05-.5,5.56-1.66,7.96-.71,1.46-2.3,4.3-3.13,5.65-1.77,2.87-4.31,7.53-3.8,12.61.49,4.83,3.01,9.38,6.67,14.68.21.3,1.53,2.16,2.05,2.86.41.55,1.15,1.58,1.74,2.29.11.13.54.63.62.72,1.13,1.23,2.89,1.89,4.62,1.65,2.6-.35,4.62-2.53,4.66-5.29l.02-.88c.03-6.64.84-13.61,2.72-20.39,2.65-9.57,7.04-18.76,12.36-25.72,6.69-8.74,14.12-14.93,22.44-19.52,4.47-2.47,10.52-4.76,16.13-5.86.35-.07.93-.18,1.23-.23,4.48-.79,9.11-1.05,13.16-.76,5.07.37,9.69,1.38,13.89,3.3.79.36,1.57.77,2.33,1.19.26-5.42.4-10.87.4-16.36C684.23,153.17,531.06,0,342.12,0,153.17,0,0,153.17,0,342.12c0,47.35,9.62,92.45,27.01,133.46,1.37-3.09,3.07-6.35,5.21-9.7,3.71-5.81,10.02-13.66,20.36-20.61ZM541.31,190.73c5.42,0,9.82,4.4,9.82,9.82s-4.4,9.82-9.82,9.82-9.82-4.4-9.82-9.82,4.4-9.82,9.82-9.82Z"/>
      <path class="cls-1" d="M437.39,277c3.71.79,9.07-1.28,14.66-27.58,5.59-26.28,1.53-30.37-2.18-31.16-3.71-.79-9.07,1.3-14.66,27.58-5.59,26.3-1.53,30.37,2.18,31.16Z"/>
      <path class="cls-1" d="M657.83,431.16c-1.49.17-2.7.86-3.55,1.86-.99,1.17-1.53,2.74-1.22,4.5.02.09.07.36.14.6.32,1.06,1.02,2.41,1.96,3.63.66.86,2.24,2.36,3.5,3.22,1.28.87,3.4,1.87,5.43,2.37,1.08.26,2.28.43,3.46.51,2.28-7.02,4.35-14.14,6.18-21.35-1.17.6-2.38,1.16-3.64,1.65-4.13,1.6-8.2,2.56-12.26,3.02Z"/>
      <path class="cls-1" d="M539.77,201.84h1.45l2.61,3.89h2.3l-2.85-4.12c.48-.13.9-.34,1.24-.63.34-.29.61-.63.78-1.04.18-.4.27-.85.27-1.33,0-.64-.15-1.2-.44-1.69-.29-.49-.72-.87-1.28-1.14-.56-.27-1.22-.41-1.99-.41h-4.09v10.34h2.01v-3.89ZM539.77,197.03h1.65c.69,0,1.21.14,1.55.42.34.28.5.67.5,1.17s-.17.89-.5,1.16c-.34.27-.85.41-1.55.41h-1.65v-3.15Z"/>
      <path class="cls-1" d="M459.44,429.04c9.39-11.18,7.53-16.81,5.42-18.58-2.1-1.76-7.97-2.62-17.36,8.56s-7.52,16.82-5.42,18.58c2.11,1.77,7.97,2.62,17.36-8.56Z"/>
      <path class="cls-1" d="M232.37,305.77c3.71.79,9.07-1.3,14.66-27.58,5.59-26.3,1.53-30.37-2.18-31.16-3.71-.79-9.07,1.28-14.66,27.58-5.59,26.29-1.53,30.37,2.18,31.16Z"/>
      <path class="cls-1" d="M545.46,450.25c-.29-.7-.87-1.97-1.31-2.86-1.18-2.4-3.33-6.15-4.53-8.14-1.52-2.51-4.53-7.18-6.76-9.62-2.2-2.4-4.37-2.9-5.91-2.85-2.83.09-5.07,1.84-6.37,3.73-1.87,2.74-2.93,6.67-3.06,7.08-2.04,6.55-1.89,11.84,1.43,16.8.95,1.42,2.04,2.72,3.28,3.91,3.6,3.44,7.31,5.78,11.15,7.02,2.52.82,4.56.99,6.54.93,3.55-.12,5.54-2.14,6.31-3.28.73-1.08,1.25-2.5,1.3-4.24.04-1.38-.28-3.07-.54-4.07-.3-1.18-1.07-3.32-1.53-4.43Z"/>
      <path class="cls-1" d="M667.49,399.8c9.39-11.18,7.53-16.81,5.42-18.58-2.1-1.76-7.97-2.62-17.36,8.56s-7.52,16.82-5.42,18.58c2.11,1.77,7.97,2.62,17.36-8.56Z"/>
      <path class="cls-1" d="M425.65,330.92c4.41-3.52,10.21-5.93,17.7-14.1.83-.91,2.14-2.62,2.14-2.63,1.52-1.97,2.53-3.7,3.12-6.13.2-1,.17-1.54.1-2.03-.42-2.97-3.14-4.92-6.01-4.51-1.93.27-2.86,1.28-4.64,2.95-1.51,1.42-3.74,3.28-6.42,4.72-3.36,1.8-7.25,2.65-9.37,2.94-6.63.93-11.88-.07-16.43-2.38-4.17-2.12-6.67-4.54-9.44-8.12-.69-.9-2.24-2.77-3.03-3.38-1.93-1.51-3.67-1.64-4.63-1.66-1.01-.02-2.83.2-4.51,1.46-1.14.86-2.52,2.75-2.52,2.75,0,0-1.57,2.09-2.11,2.78-3.66,4.72-13.37,16.47-27.44,18.45-16.09,2.26-24.16-4.69-28.62-9.89-4.06-4.72-6-11.94-6.76-14.55-.1-.36-.34-1.07-.46-1.43-.99-2.96-4.13-5.63-8.13-5.07-1.7.24-3.27.9-5.22,3.04-5.56,6.09-12.59,13.59-18.53,19.85-4.05,4.27-7.64,7.92-10.05,10.02-1.28,1.12-2.74,2.43-4.66,3.91-.03.02-.05.05-.08.07-.06.04-.12.09-.18.14-.1.07-.2.15-.3.22-1.18.89-2.62,1.9-4.31,2.92-.05.03-.1.06-.15.1,0,0-.01,0-.02.01-3.47,2.06-7.96,4.07-13.35,4.83-5.51.77-10.77.46-15.5-.67-3.21-.77-4.41-1.24-5.91-1.56-1.41-.3-3.07-.58-5.38-.26-1.81.25-3.57,1.08-4.39,1.55-.63.36-1.61,1.02-2.12,1.41-.26.2-.79.6-1.05.8-.9.71-2.49,1.84-3.38,2.37-.9.54-2.17,1.17-3.91,1.75-1,.34-2.68.78-4.09,1.25-1.81.59-3.07,1.38-3.76,1.88-2.28,1.66-3.25,3.65-3.74,4.65-.82,1.67-1.44,4.71-.63,7.62.8,2.86,1.87,4.57,2.91,7.19.01.03.23.59.3.79.08.22.31.88.31.88.51,1.54.89,3.12,1.12,4.75.92,6.55-.66,10.98-1.8,14.38-1.34,4.01-3.29,8.99-5.52,15.99-2.55,8.03-4.9,15.85-6.81,24.3-.07.32-.14.82-.15,1.1-.01.29.01.94.05,1.17.49,2.84,3.13,4.81,6.01,4.41,1.71-.24,2.85-1.3,3.1-1.49,6.91-5.95,14-10.43,21.39-13.42.67-.27,3.13-1.08,4.19-1.36,1.04-.28,3.16-.7,4.23-.87.79-.13,2.39-.34,3.19-.43.52-.06,1.39-.15,2.08-.18,14.37-.69,26.92,9.83,28.7,24.34.11.92.22,3.59.19,4.75-.04,1.98-.34,4.81-.55,6.39-.27,1.99-.91,6.03-1.37,8.12-1.08,4.92-2.41,10.04-3.29,13.36-.76,2.83-2.39,8.79-3.05,11.32-.43,1.66-1.32,4.94-1.63,6.66-.24,1.34-.41,2.29-.44,3.06-.03.75.01,1.71.13,2.26.2,1,.63,2.08,1.49,2.92.59.58,1.46,1.29,2.92,1.54.93.16,2.09.07,3.22-.32,1.94-.66,3.65-2.37,4.86-4.01,1.11-1.5,3.03-5.13,4.38-8.5,2.08-5.18,4.04-10.94,5.51-15.71.54-1.75,4.92-16.73,6.49-21.56.05-.15.1-.29.15-.43,2.69-8.42,6.68-16.37,11.41-22.57,6.69-8.74,14.12-14.93,22.44-19.52,4.47-2.47,10.52-4.76,16.13-5.86.35-.07.93-.18,1.23-.23,4.48-.79,9.12-1.05,13.16-.76,5.07.37,9.69,1.38,13.89,3.3,3.14,1.44,6.17,3.56,7.95,5.1,3.94,3.55,7.52,8.85,8.96,15.04,1.22,5.25,1.16,10.19.72,13.56-.49,3.69-1.79,8.37-3.67,12.34-2.9,6.13-6.85,11.7-11.09,15.68-3.46,3.25-8.44,6.89-14.28,9.15-4.13,1.6-8.2,2.56-12.26,3.02-1.49.17-2.7.86-3.55,1.86-.99,1.17-1.53,2.74-1.22,4.5.02.09.07.36.14.6.32,1.06,1.02,2.41,1.96,3.63.66.86,2.24,2.36,3.5,3.22,1.28.87,3.4,1.87,5.43,2.37,2.09.51,4.68.64,6.6.54,2.31-.12,5.27-.68,7.37-1.37,2.32-.77,4.68-1.83,8.15-3.95,2.96-1.81,6.1-4.61,7.96-6.5,3.82-3.88,7.1-8.45,9.17-11.49,4.66-6.85,9.56-18.37,13.02-30.84,2.81-10.15,6.95-20.78,13.67-29.58,6.67-8.75,14.12-14.93,22.44-19.52.72-.4,1.5-.79,2.3-1.18,2.66-1.35,3.87-2.57,4.44-3.24.93-1.09,2.79-3.63,2.26-7.43-.61-4.32-3.56-6.26-5.97-7.37-.65-.3-1.46-.67-2.33-1.09-4.57-2.07-7.88-5.27-9.99-8.47-4.39-6.67-3.92-14.95-2.19-19.59,1.71-4.58,4.1-7.6,8.08-10.78Z"/>
      <path class="cls-1" d="M344.07,445.25c9.39-11.18,7.53-16.81,5.42-18.58-2.1-1.76-7.97-2.62-17.36,8.56-9.39,11.18-7.52,16.82-5.42,18.58,2.11,1.77,7.97,2.62,17.36-8.56Z"/>
    </g>
  </g>
</svg>
