<?xml version="1.0" encoding="UTF-8"?>
<svg id="_레이어_2" data-name="레이어 2" xmlns="http://www.w3.org/2000/svg" viewBox="0 0 297.48 118.46">
  <defs>
    <style>
      .cls-1 {
        fill: none;
      }

      .cls-1, .cls-2 {
        stroke-width: 0px;
      }

      .cls-2 {
        fill: #f7f3e6;
      }
    </style>
  </defs>
  <g id="_레이어_1-2" data-name="레이어 1">
    <g>
      <g>
        <path class="cls-2" d="M26.25,0H0v51.35h10.27v-18.12h15.97c5.99,0,10.13-4.14,10.13-10.13v-12.98c0-5.99-4.14-10.13-10.13-10.13ZM26.1,21.11c0,1.57-.86,2.42-2.43,2.42h-13.41v-13.84h13.41c1.57,0,2.43.86,2.43,2.43v8.99Z"/>
        <path class="cls-2" d="M71.82,31.88c4.28-1.21,6.99-4.85,6.99-9.7v-12.05c0-5.99-4.14-10.13-10.13-10.13h-26.17v51.35h10.27v-19.04h8.27l8.27,19.04h11.05l-8.56-19.47ZM68.54,20.33c0,1.57-.86,2.42-2.43,2.42h-13.34v-13.05h13.34c1.57,0,2.43.86,2.43,2.43v8.2Z"/>
      </g>
      <g>
        <path class="cls-2" d="M31.25,92.5c3.24-1.9,4.44-4.58,4.44-7.62v-7.19c0-5.93-4.09-10.02-10.02-10.02H0v50.78h26.24c5.92,0,10.02-4.09,10.02-10.02v-8.32c0-3.03-1.48-5.92-5.01-7.62ZM10.16,77.12h12.98c1.55,0,2.4.85,2.4,2.4v6.07c0,1.98-.56,2.4-2.4,2.4h-12.98v-10.86ZM26.1,106.61c0,1.55-.85,2.4-2.4,2.4h-13.54v-11.99h12.7c1.98,0,3.24.14,3.24,2.26v7.34Z"/>
        <path class="cls-2" d="M69.4,67.11h-17c-5.93,0-10.02,4.09-10.02,10.02v31.32c0,5.93,4.09,10.02,10.02,10.02h17c5.92,0,10.02-4.09,10.02-10.02v-31.32c0-5.92-4.09-10.02-10.02-10.02ZM69.26,106.47c0,1.55-.85,2.4-2.4,2.4h-11.92c-1.55,0-2.4-.85-2.4-2.4v-27.37c0-1.55.85-2.4,2.4-2.4h11.92c1.55,0,2.4.85,2.4,2.4v27.37Z"/>
        <path class="cls-2" d="M100.13,67.67l-16.36,50.78h10.51l3.39-11.43h16.43l3.32,11.43h10.93l-16.36-50.78h-11.85ZM100.48,97.44l5.5-18.62,5.36,18.62h-10.86Z"/>
        <path class="cls-2" d="M168.59,89.61v-11.92c0-5.93-4.09-10.02-10.02-10.02h-25.89v50.78h10.16v-18.83h8.18l8.18,18.83h10.93l-8.46-19.26c4.23-1.2,6.91-4.8,6.91-9.59ZM158.43,87.77c0,1.55-.85,2.4-2.4,2.4h-13.19v-12.91h13.19c1.55,0,2.4.85,2.4,2.4v8.11Z"/>
        <path class="cls-2" d="M202.3,67.67h-26.45v50.78h26.45c5.93,0,10.02-4.09,10.02-10.02v-30.75c0-5.93-4.09-10.02-10.02-10.02ZM202.16,106.47c0,1.55-.85,2.4-2.4,2.4h-13.75v-31.6h13.75c1.55,0,2.4.85,2.4,2.4v26.8Z"/>
      </g>
      <rect class="cls-1" x="0" y="0" width="297.48" height="118.46"/>
    </g>
  </g>
</svg>