<?xml version="1.0" encoding="UTF-8"?>
<svg id="_레이어_2" data-name="레이어 2" xmlns="http://www.w3.org/2000/svg" viewBox="0 0 50 50">
  <defs>
    <style>
      .cls-1 {
        fill: rgb(248, 244, 231);
      }

      .cls-1, .cls-2, .cls-3, .cls-4 {
        stroke-width: 0px;
      }

      .cls-2 {
        fill: rgb(24, 127, 59);
      }

      .cls-3 {
        fill: none;
      }

      .cls-4 {
        fill: #fff;
      }
    </style>
  </defs>
  <g id="_레이어_1-2" data-name="레이어 1">
    <g>
      <g>
        <path class="cls-4" d="M48.32,32.63c-.15-.04-.3-.11-.4-.17-.09-.06-.21-.17-.26-.24-.07-.09-.12-.19-.14-.26,0-.02,0-.04-.01-.04-.02-.13.02-.24.09-.33.06-.07.15-.12.26-.14.3-.03.59-.1.9-.22.19-.07.36-.17.52-.27.37-1.52.61-3.09.68-4.69-.11-.08-.24-.15-.37-.22-.31-.14-.64-.21-1.01-.24-.3-.02-.63,0-.96.06-.02,0-.06.01-.09.02-.41.08-.85.25-1.18.43-.61.34-1.15.79-1.64,1.43-.39.51-.71,1.18-.9,1.88-.14.5-.2,1.01-.2,1.49v.06c0,.2-.15.36-.34.39-.13.02-.26-.03-.34-.12,0,0-.04-.04-.05-.05-.04-.05-.1-.13-.13-.17-.04-.05-.13-.19-.15-.21-.27-.39-.45-.72-.49-1.07-.04-.37.15-.71.28-.92.06-.1.18-.31.23-.41.08-.18.15-.36.12-.58-.11-.78-1.41-1.27-2.99-1.05-.59.08-1.04.24-1.36.39-.42.2-1.23.64-1.29,1.51,0,.12,0,.34,0,.49,0,.25-.02.46-.02.5-.1,1.08-.5,2.35-1.07,3.22-.13.2-.34.49-.54.71-.36.39-.53.5-.73.63-.14.09-.43.23-.6.29-.15.05-.37.09-.54.1-.14,0-.33,0-.48-.04-.15-.04-.3-.11-.4-.17-.09-.06-.21-.17-.26-.24-.07-.09-.12-.19-.14-.26,0-.02,0-.04-.01-.04-.02-.13.02-.24.09-.33.06-.07.15-.12.26-.14.3-.03.59-.1.9-.22.43-.17.79-.43,1.04-.67.31-.29.6-.7.81-1.15.14-.29.23-.63.27-.9.03-.25.04-.61-.05-.99-.11-.45-.37-.84-.65-1.1-.13-.11-.35-.27-.58-.37-.15-.07-.3-.12-.46-.16-.05-.01-.11-.02-.15-.03-.04,0-.11-.02-.15-.04-.29-.08-.49-.27-.53-.56-.04-.28.09-.51.31-.66.03-.02.04-.03.05-.04.01,0,.03-.02.05-.03.74-.49,1.22-1.25,1.5-1.78.31-.6.61-1.48.86-2.57.24-1.07.7-1.63,1.05-2.14,1.22-1.81,1.77-3.04,2.13-3.84,0,0,.06-.13.04-.29-.04-.3-.32-.51-.62-.47-.23.03-.35.2-.43.34-.16.27-.49.96-.83,1.33-.06.07-.15.12-.24.13-.19.03-.37-.09-.43-.27,0-.02-.01-.05-.01-.07,0-.02,0-.05,0-.07,0-.02,0-.04,0-.07,0-.28,0-.43,0-.73,0-.5-.02-.96-.04-1.27,0-.05-.02-.16-.02-.21,0-.03-.02-.11-.02-.12-.09-.54-.39-.9-.68-1.1-.17-.12-.37-.2-.56-.25-.19-.04-.38-.04-.55-.02-.23.03-.43.1-.63.23-.11.07-.21.15-.23.17-.15.12-.3.22-.52.25-.26.04-.42-.03-.63-.08-.21-.06-.68-.19-1.32-.1-.97.14-1.62.63-2.19,1.34-.24.33-.43.7-.58,1.09,0,.01-.03.07-.03.08-.26.65-.61,1.89-.81,2.53-.14.47-.44,1.4-.7,1.81-.05.07-.14.2-.23.28-.1.09-.18.13-.3.14-.19.03-.37-.07-.43-.25-.06-.17-.03-.37.03-.59.03-.11.08-.3.11-.42.09-.33.2-.72.26-.97.06-.25.19-.74.25-.99.07-.3.18-.85.23-1.2.03-.19.03-.4.01-.53-.04-.25-.14-.47-.27-.63-.01-.02-.04-.05-.05-.06-.02-.02-.06-.06-.06-.07-.07-.07-.12-.14-.16-.23-.06-.15-.05-.33.06-.48.05-.08.13-.14.22-.19.03-.02.09-.05.14-.08h0c.41-.24.72-.65.84-1.15.23-.98-.38-1.96-1.36-2.19-.98-.23-1.96.38-2.19,1.36-.12.5-.01,1.01.25,1.41.03.04.06.09.08.12.06.09.1.18.11.27.03.18-.05.35-.16.46-.07.06-.16.11-.25.14-.02,0-.06.02-.08.03-.02,0-.06.02-.08.03-.07.02-.13.06-.19.09-.24.15-.45.38-.56.7-.05.15-.08.29-.1.39-.03.12-.08.37-.1.5-.02.12-.05.31-.08.47-.01.07-.02.13-.03.2h0c-.17,1.13-.38,1.86-.62,2.19,0,0-.02.02-.02.03,0,0-.02.03-.03.03-.04.04-.12.13-.27.15-.21.03-.41-.11-.44-.33-.02-.13-.03-.34-.04-.48-.03-.24-.07-.47-.13-.7-.38-1.35-1.34-2.35-2.56-2.47-.19-.02-.39-.01-.58.01-.36.05-.7.18-.98.37-.02.02-.07.04-.11.08-.06.04-.12.07-.19.08-.22.03-.41-.12-.44-.33-.01-.09,0-.17.02-.22.1-.38.21-.75.33-1.12.16-.51.31-.88.41-1.17.08-.25.19-.58.12-1.05-.14-1.02-1.1-1.85-2.25-1.69-1.04.15-1.53,1-1.64,1.45-.02.07-.04.15-.06.23-.04.18-.09.37-.13.58-.12.61-.22,1.3-.3,2.07-.08.77-.14,1.58-.17,2.42-.04.84-.05,1.67-.05,2.47,0,.81.03,1.55.08,2.24.04.58.07,1.09.15,1.51.01.06.03.14.04.19.01.05.03.11.05.18.06.19.14.34.16.45.01.04.04.15.03.28,0,.13-.05.28-.15.42-.07.1-.15.17-.21.21-.16.11-.37.15-.52.17,0,0-.08.01-.11.02-.02,0-.08.01-.1.02-.8.17-1.32.79-1.49,1.42-.07.24-.13.52-.19.82-.12.61-.22,1.3-.3,2.07-.08.77-.17,2.42-.17,2.42,0,0-.03,1.1-.05,1.46-.05,1.07-.19,1.89-.43,2.47-.31.77-.71,1.27-1.09,1.6-.36.32-.83.63-1.46.75-.33.06-.91.1-1.4-.26-.42-.3-.61-.75-.66-1.21-.03-.31-.04-.73.11-1.26.1-.35.34-.83.58-1.07.07-.06.17-.16.32-.18.21-.03.41.12.44.33,0,.04,0,.09,0,.12,0,.05,0,.12.02.2.11.61.69.95,1.23.85.37-.07.6-.3.73-.51.12-.18.18-.38.22-.51.06-.26.09-.52.06-.85-.03-.38-.16-.7-.3-.96-.18-.32-.45-.6-.64-.75-.17-.13-.41-.29-.71-.39-.53-.18-.97-.18-1.35-.15-.12,0-.26.03-.39.05-.42.08-1.01.26-1.61.66-.76.51-1.22,1.08-1.49,1.51-.11.17-.2.34-.28.5.94,2.28,2.2,4.39,3.73,6.27.26-.04.77-.14,1.33-.37.94-.39,1.55-.94,2.11-1.52,0,0,.25-.28.34-.36.04-.04.13-.12.31-.15.26-.04.44.11.55.28.03.05.06.12.08.15.07.13.14.27.24.41.36.51.93.74,1.46.67.93-.13,1.28-.85,1.37-1.27.04-.2.04-.45.04-.54,0-.84.04-1.63.14-2.23.12-.76.28-1.37.46-1.81.02-.06.06-.15.1-.22.09-.16.2-.27.39-.29.24-.03.47.12.47.47,0,.06,0,.18-.02.24,0,.08-.03.25-.04.34-.04.27-.09.82-.11,1.09-.01.18-.08.7-.01,1.23.07.58.21.87.35,1.13.18.32.46.65.87.87.38.2.86.3,1.38.22.83-.12,1.35-.49,1.69-.81.34-.31.61-.71.78-.98,0,0,.08-.11.1-.14.14-.21.32-.24.38-.24.1-.01.27,0,.43.12.02.01.04.03.05.05.03.03.1.1.13.13.04.04.15.14.18.17.16.14.33.26.53.37.94.52,1.98.45,2.6.37.71-.1,1.27-.32,1.73-.56.4-.21.9-.52,1.44-1.09.09-.09.17-.19.25-.28,0,0,.14-.17.19-.23.04-.05.13-.16.17-.22.03-.04.09-.11.13-.15.04-.04.14-.13.31-.15.21-.03.36.06.48.17.03.02.11.11.14.15.07.08.16.17.28.29.2.2.43.38.7.53.89.49,1.89.47,2.6.37.38-.05.87-.2,1.15-.32.84-.35,1.47-.86,1.97-1.45.03-.03.06-.07.08-.1.02-.02.1-.12.16-.17.13-.11.26-.12.27-.12.13-.02.28,0,.42.12.04.03.17.15.23.2.15.14.36.3.57.41.94.52,1.98.45,2.6.37.05,0,.09-.01.13-.02.65-.11,1.17-.32,1.59-.54.4-.21.9-.52,1.44-1.09.09-.1.18-.2.26-.29.02-.02.12-.15.2-.2.1-.07.18-.09.24-.1.13-.02.28,0,.42.12.04.03.1.1.15.15.2.2.43.38.7.53.94.52,1.98.45,2.6.37.03,0,.07-.01.1-.02.3-.69.56-1.4.8-2.13-.14,0-.33,0-.48-.04Z"/>
        <path class="cls-4" d="M39.45,15.31c.39-.06.67-.42.61-.81s-.42-.67-.81-.61-.67.42-.61.81c.06.39.42.67.81.61Z"/>
      </g>
      <g>
        <path class="cls-2" d="M45.3,34.45c-.26-.15-.5-.32-.7-.53-.04-.04-.11-.11-.15-.15-.14-.11-.28-.14-.42-.12-.06,0-.15.03-.24.1-.08.06-.18.18-.2.2-.08.1-.17.2-.26.29-.54.57-1.04.88-1.44,1.09-.43.22-.95.43-1.59.54-.04,0-.08.02-.13.02-.62.09-1.67.16-2.6-.37-.21-.12-.42-.28-.57-.41-.06-.05-.2-.18-.23-.2-.14-.11-.29-.14-.42-.12,0,0-.14.01-.27.12-.06.05-.14.15-.16.17-.02.02-.06.07-.08.1-.5.58-1.13,1.1-1.97,1.45-.29.12-.77.27-1.15.32-.71.1-1.71.12-2.6-.37-.27-.15-.5-.32-.7-.53-.13-.12-.21-.22-.28-.29-.04-.04-.12-.12-.14-.15-.11-.11-.27-.2-.48-.17-.17.02-.27.12-.31.15-.04.04-.1.11-.13.15-.04.05-.13.16-.17.22-.05.06-.19.23-.19.23-.08.09-.16.19-.25.28-.54.57-1.04.88-1.44,1.09-.46.24-1.01.46-1.73.56-.62.09-1.67.16-2.6-.37-.19-.11-.37-.23-.53-.37-.03-.03-.13-.13-.18-.17-.03-.03-.1-.1-.13-.13-.01-.01-.04-.03-.05-.05-.16-.13-.32-.14-.43-.12-.06,0-.24.04-.38.24-.02.03-.09.14-.1.14-.17.27-.44.66-.78.98-.35.32-.87.69-1.69.81-.52.07-1-.02-1.38-.22-.41-.22-.69-.55-.87-.87-.15-.26-.28-.55-.35-1.13-.07-.54,0-1.06.01-1.23.02-.27.08-.82.11-1.09.01-.08.03-.25.04-.34,0-.06.01-.18.02-.24,0-.35-.23-.5-.47-.47-.19.02-.3.13-.39.29-.04.07-.08.16-.1.22-.18.44-.33,1.05-.46,1.81-.1.6-.13,1.39-.14,2.23,0,.1,0,.35-.04.54-.08.41-.43,1.13-1.37,1.27-.53.08-1.1-.16-1.46-.67-.1-.13-.17-.28-.24-.41-.02-.03-.05-.1-.08-.15-.1-.17-.28-.32-.55-.28-.18.03-.27.11-.31.15-.09.08-.34.36-.34.36-.56.57-1.17,1.12-2.11,1.52-.55.23-1.06.33-1.33.37,4.87,5.98,12.42,9.64,20.72,9.21,9.85-.52,18.07-6.67,21.7-15.17-.03,0-.07.01-.1.02-.62.09-1.67.16-2.6-.37Z"/>
        <path class="cls-2" d="M3.64,32.48c.59-.4,1.18-.58,1.61-.66.13-.02.27-.04.39-.05.38-.03.82-.03,1.35.15.31.11.54.26.71.39.19.15.46.43.64.75.14.26.27.58.3.96.03.33,0,.59-.06.85-.03.14-.1.33-.22.51-.14.21-.36.44-.73.51-.54.09-1.11-.24-1.23-.85-.02-.08-.02-.15-.02-.2,0-.03,0-.08,0-.12-.03-.21-.23-.36-.44-.33-.15.02-.25.12-.32.18-.24.24-.48.72-.58,1.07-.15.52-.15.94-.11,1.26.05.46.24.9.66,1.21.5.36,1.07.33,1.4.26.63-.12,1.1-.43,1.46-.75.37-.33.78-.83,1.09-1.6.24-.58.38-1.4.43-2.47.02-.37.05-1.46.05-1.46,0,0,.09-1.65.17-2.42.08-.77.18-1.46.3-2.07.06-.3.13-.58.19-.82.18-.62.69-1.24,1.49-1.42.02,0,.08-.01.1-.02.03,0,.1-.02.11-.02.15-.02.35-.06.52-.17.06-.04.14-.11.21-.21.1-.14.14-.29.15-.42,0-.13-.02-.24-.03-.28-.03-.11-.1-.26-.16-.45-.02-.08-.04-.14-.05-.18-.01-.05-.03-.12-.04-.19-.07-.42-.1-.93-.15-1.51-.05-.69-.08-1.43-.08-2.24,0-.81.01-1.63.05-2.47.04-.84.09-1.65.17-2.42.08-.77.18-1.46.3-2.07.04-.21.08-.4.13-.58.02-.08.05-.16.06-.23.11-.45.6-1.3,1.64-1.45,1.15-.16,2.1.67,2.25,1.69.07.47-.04.8-.12,1.05-.1.29-.25.66-.41,1.17-.12.37-.23.74-.33,1.12-.01.05-.04.13-.02.22.03.21.22.36.44.33.08-.01.14-.04.19-.08.04-.03.09-.06.11-.08.28-.19.63-.32.98-.37.19-.03.38-.03.58-.01,1.22.12,2.18,1.12,2.56,2.47.06.22.1.46.13.7.02.14.02.35.04.48.03.22.23.36.44.33.14-.02.23-.11.27-.15,0,0,.02-.02.03-.03,0,0,.02-.02.02-.03.24-.33.45-1.06.62-2.19h0c0-.07.02-.13.03-.2.03-.16.06-.35.08-.47.02-.12.07-.37.1-.5.02-.1.05-.24.1-.39.11-.31.32-.55.56-.7.06-.04.13-.07.19-.09.02,0,.06-.02.08-.03.02,0,.06-.02.08-.03.09-.03.18-.07.25-.14.12-.11.19-.27.16-.46-.01-.09-.05-.18-.11-.27-.02-.03-.05-.08-.08-.12-.26-.4-.36-.9-.25-1.41.23-.98,1.21-1.59,2.19-1.36.98.23,1.59,1.21,1.36,2.19-.12.5-.43.9-.84,1.15h0s-.1.06-.14.08c-.1.06-.17.12-.22.19-.11.15-.11.33-.06.48.03.09.09.17.16.23,0,0,.05.05.06.07.01.01.04.04.05.06.13.15.23.37.27.63.02.14.01.35-.01.53-.05.35-.16.9-.23,1.2-.06.25-.18.74-.25.99-.06.25-.18.64-.26.97-.03.11-.08.3-.11.42-.05.22-.09.42-.03.59.07.18.25.28.43.25.12-.02.19-.06.3-.14.09-.08.18-.21.23-.28.26-.41.56-1.35.7-1.81.19-.63.55-1.87.81-2.53,0-.01.03-.07.03-.08.15-.4.34-.77.58-1.09.56-.72,1.22-1.21,2.19-1.34.65-.09,1.11.04,1.32.1.21.06.38.12.63.08.22-.03.37-.13.52-.25.02-.02.12-.1.23-.17.2-.13.4-.2.63-.23.16-.02.36-.02.55.02.19.04.39.12.56.25.28.2.59.55.68,1.1,0,0,.02.09.02.12,0,.05.02.16.02.21.02.31.04.77.04,1.27,0,.3,0,.44,0,.73,0,.02,0,.05,0,.07,0,.02,0,.05,0,.07,0,.02,0,.04.01.07.06.18.24.3.43.27.09-.01.18-.06.24-.13.34-.36.67-1.05.83-1.33.08-.13.2-.3.43-.34.3-.04.58.16.62.47.02.16-.04.29-.04.29-.36.81-.91,2.03-2.13,3.84-.35.52-.8,1.07-1.05,2.14-.25,1.09-.54,1.97-.86,2.57-.28.54-.76,1.3-1.5,1.78-.02.01-.04.02-.05.03-.01,0-.03.02-.05.04-.22.16-.35.38-.31.66.04.29.24.48.53.56.04.01.11.03.15.04.04,0,.1.02.15.03.16.04.32.09.46.16.23.11.45.26.58.37.29.26.55.65.65,1.1.09.38.09.74.05.99-.04.27-.13.61-.27.9-.21.45-.5.86-.81,1.15-.25.24-.62.5-1.04.67-.3.12-.6.19-.9.22-.11.01-.2.06-.26.14-.07.09-.11.2-.09.33,0,0,0,.03.01.04.02.08.07.18.14.26.05.06.16.17.26.24.09.06.25.14.4.17.15.04.34.05.48.04.17,0,.38-.05.54-.1.17-.06.46-.2.6-.29.19-.13.37-.24.73-.63.2-.22.42-.52.54-.71.57-.87.97-2.14,1.07-3.22,0-.04.02-.25.02-.5,0-.14,0-.36,0-.49.06-.88.87-1.32,1.29-1.51.32-.15.77-.3,1.36-.39,1.57-.22,2.88.27,2.99,1.05.03.22-.04.41-.12.58-.05.11-.17.31-.23.41-.13.21-.32.55-.28.92.04.35.22.69.49,1.07.02.02.11.16.15.21.03.04.08.12.13.17,0,0,.04.05.05.05.08.09.21.14.34.12.19-.03.34-.19.34-.39v-.06c0-.48.06-.99.2-1.49.19-.7.51-1.37.9-1.88.49-.64,1.03-1.09,1.64-1.43.33-.18.77-.35,1.18-.43.03,0,.07-.01.09-.02.33-.06.67-.08.96-.06.37.03.71.1,1.01.24.13.06.26.14.37.22.04-.85.04-1.71,0-2.57C49.24,9.9,37.48-.69,23.69.03,9.9.76-.69,12.52.03,26.31c.15,2.89.79,5.64,1.83,8.18.08-.16.17-.33.28-.5.27-.42.73-1,1.49-1.51ZM39.25,13.89c.39-.06.76.22.81.61s-.22.76-.61.81c-.39.06-.76-.22-.81-.61-.06-.39.22-.76.61-.81Z"/>
        <path class="cls-3" d="M39.4,15c.19-.03.33-.18.35-.37l-.19.03c-.02.08-.09.15-.18.16-.12.02-.23-.07-.25-.19s.07-.23.19-.25c.09-.01.17.03.21.1l.19-.03c-.07-.17-.24-.28-.43-.25-.22.03-.37.23-.34.45s.23.37.45.34Z"/>
        <path class="cls-2" d="M47.86,31.45c-.11.01-.2.06-.26.14-.07.09-.11.2-.09.33,0,0,0,.03.01.04.02.08.07.18.14.26.05.06.16.17.26.24.09.06.25.14.4.17.15.04.34.05.48.04.18-.56.34-1.13.49-1.71-.16.1-.33.2-.52.27-.3.12-.6.19-.9.22Z"/>
        <path class="cls-3" d="M31.76,20.18c.27.06.66-.09,1.07-2.02.41-1.92.11-2.22-.16-2.28-.27-.06-.66.09-1.07,2.02-.41,1.92-.11,2.22.16,2.28Z"/>
        <path class="cls-3" d="M39.65,32.84c-.02-.05-.06-.14-.1-.21-.09-.18-.24-.45-.33-.6-.11-.18-.33-.52-.49-.7-.16-.18-.32-.21-.43-.21-.21,0-.37.13-.47.27-.14.2-.21.49-.22.52-.15.48-.14.87.1,1.23.07.1.15.2.24.29.26.25.53.42.82.51.18.06.33.07.48.07.26,0,.4-.16.46-.24.05-.08.09-.18.1-.31,0-.1-.02-.22-.04-.3-.02-.09-.08-.24-.11-.32Z"/>
        <path class="cls-3" d="M48.57,29.16c.69-.82.55-1.23.4-1.36-.15-.13-.58-.19-1.27.63-.69.82-.55,1.23-.4,1.36.15.13.58.19,1.27-.63Z"/>
        <path class="cls-3" d="M33.37,31.29c.69-.82.55-1.23.4-1.36-.15-.13-.58-.19-1.27.63-.69.82-.55,1.23-.4,1.36.15.13.58.19,1.27-.63Z"/>
        <path class="cls-3" d="M16.78,22.28c.27.06.66-.09,1.07-2.02.41-1.92.11-2.22-.16-2.28s-.66.09-1.07,2.02c-.41,1.92-.11,2.22.16,2.28ZM17.86,18.58h0s0,0,0,0h0Z"/>
        <polygon class="cls-1" points="17.86 18.58 17.86 18.58 17.86 18.58 17.86 18.58"/>
        <path class="cls-2" d="M31.6,17.9c.41-1.92.8-2.07,1.07-2.02.27.06.57.36.16,2.28-.41,1.92-.8,2.07-1.07,2.02-.27-.06-.57-.35-.16-2.28Z"/>
        <path class="cls-2" d="M16.62,20.01c.41-1.92.8-2.07,1.07-2.02s.57.35.16,2.28c-.41,1.92-.8,2.07-1.07,2.02-.27-.06-.57-.36-.16-2.28Z"/>
        <path class="cls-2" d="M24.06,31.74c.69-.82,1.11-.75,1.27-.63.15.13.29.54-.4,1.36-.69.82-1.11.75-1.27.63-.15-.13-.29-.54.4-1.36Z"/>
        <path class="cls-2" d="M32.49,30.56c.69-.82,1.11-.75,1.27-.63.15.13.29.54-.4,1.36-.69.82-1.11.75-1.27.63-.15-.13-.29-.54.4-1.36Z"/>
        <path class="cls-2" d="M39.71,33.77c-.06.08-.2.23-.46.24-.14,0-.29,0-.48-.07-.28-.09-.55-.26-.82-.51-.09-.09-.17-.18-.24-.29-.24-.36-.25-.75-.1-1.23,0-.03.09-.32.22-.52.09-.14.26-.27.47-.27.11,0,.27.03.43.21.16.18.38.52.49.7.09.15.24.42.33.6.03.07.07.16.1.21.03.08.09.24.11.32.02.07.04.2.04.3,0,.13-.04.23-.1.31Z"/>
        <path class="cls-2" d="M47.7,28.42c.69-.82,1.11-.75,1.27-.63.15.13.29.54-.4,1.36-.69.82-1.11.75-1.27.63-.15-.13-.29-.54.4-1.36Z"/>
        <path class="cls-2" d="M39.35,14.19c.19,0,.35.13.39.31h-.19c-.04-.07-.11-.12-.2-.12-.12,0-.22.1-.22.22s.1.22.22.22c.09,0,.17-.05.2-.13h.19c-.04.18-.2.31-.39.31-.22,0-.4-.18-.4-.4s.18-.4.4-.4Z"/>
        <path class="cls-3" d="M31.37,27.04s-.11-.05-.17-.08c-.33-.15-.58-.39-.73-.62-.32-.49-.29-1.09-.16-1.43.13-.33.3-.56.59-.79.32-.26.75-.43,1.29-1.03.06-.07.16-.19.16-.19.11-.14.18-.27.23-.45.01-.07.01-.11,0-.15-.03-.22-.23-.36-.44-.33-.14.02-.21.09-.34.22-.11.1-.27.24-.47.34-.25.13-.53.19-.68.22-.48.07-.87,0-1.2-.17-.3-.15-.49-.33-.69-.59-.05-.07-.16-.2-.22-.25-.14-.11-.27-.12-.34-.12-.07,0-.21.01-.33.11-.08.06-.18.2-.18.2,0,0-.11.15-.15.2-.27.34-.98,1.2-2,1.35-1.18.17-1.77-.34-2.09-.72-.3-.35-.44-.87-.49-1.06,0-.03-.02-.08-.03-.1-.07-.22-.3-.41-.59-.37-.12.02-.24.07-.38.22-.41.44-.92.99-1.35,1.45-.3.31-.56.58-.73.73-.09.08-.2.18-.34.29,0,0,0,0,0,0,0,0,0,0-.01.01,0,0-.01.01-.02.02-.09.06-.19.14-.31.21,0,0,0,0-.01,0,0,0,0,0,0,0-.25.15-.58.3-.98.35-.4.06-.79.03-1.13-.05-.23-.06-.32-.09-.43-.11-.1-.02-.22-.04-.39-.02-.13.02-.26.08-.32.11-.05.03-.12.07-.15.1-.02.01-.06.04-.08.06-.07.05-.18.13-.25.17-.07.04-.16.09-.29.13-.07.02-.2.06-.3.09-.13.04-.22.1-.27.14-.17.12-.24.27-.27.34-.06.12-.11.34-.05.56.06.21.14.33.21.53,0,0,.02.04.02.06,0,.02.02.06.02.06.04.11.06.23.08.35.07.48-.05.8-.13,1.05-.1.29-.24.66-.4,1.17-.19.59-.36,1.16-.5,1.78,0,.02,0,.06-.01.08,0,.02,0,.07,0,.09.04.21.23.35.44.32.13-.02.21-.09.23-.11.51-.44,1.02-.76,1.56-.98.05-.02.23-.08.31-.1.08-.02.23-.05.31-.06.06,0,.17-.02.23-.03.04,0,.1-.01.15-.01,1.05-.05,1.97.72,2.1,1.78,0,.07.02.26.01.35,0,.14-.02.35-.04.47-.02.15-.07.44-.1.59-.08.36-.18.73-.24.98-.06.21-.17.64-.22.83-.03.12-.1.36-.12.49-.02.1-.03.17-.03.22,0,.05,0,.12,0,.17.01.07.05.15.11.21.04.04.11.09.21.11.07.01.15,0,.24-.02.14-.05.27-.17.36-.29.08-.11.22-.37.32-.62.15-.38.3-.8.4-1.15.04-.13.36-1.22.47-1.58,0-.01,0-.02.01-.03.2-.61.49-1.2.83-1.65.49-.64,1.03-1.09,1.64-1.43.33-.18.77-.35,1.18-.43.03,0,.07-.01.09-.02.33-.06.67-.08.96-.06.37.03.71.1,1.01.24.23.11.45.26.58.37.29.26.55.65.65,1.1.09.38.09.74.05.99-.04.27-.13.61-.27.9-.21.45-.5.86-.81,1.15-.25.24-.62.5-1.04.67-.3.12-.6.19-.9.22-.11.01-.2.06-.26.14-.07.09-.11.2-.09.33,0,0,0,.03.01.04.02.08.07.18.14.26.05.06.16.17.26.24.09.06.25.14.4.17.15.04.34.05.48.04.17,0,.38-.05.54-.1.17-.06.34-.13.6-.29.22-.13.45-.34.58-.47.28-.28.52-.62.67-.84.34-.5.7-1.34.95-2.25.21-.74.51-1.52,1-2.16.49-.64,1.03-1.09,1.64-1.43.05-.03.11-.06.17-.09.19-.1.28-.19.32-.24.07-.08.2-.27.16-.54-.04-.32-.26-.46-.44-.54Z"/>
        <path class="cls-3" d="M24.94,32.48c.69-.82.55-1.23.4-1.36-.15-.13-.58-.19-1.27.63-.69.82-.55,1.23-.4,1.36.15.13.58.19,1.27-.63Z"/>
        <path class="cls-2" d="M31.64,28.12s-.13.14-.32.24c-.06.03-.12.06-.17.09-.61.34-1.15.79-1.64,1.43-.49.64-.79,1.42-1,2.16-.25.91-.61,1.75-.95,2.25-.15.22-.39.56-.67.84-.14.14-.36.34-.58.47-.25.15-.43.23-.6.29-.15.05-.37.09-.54.1-.14,0-.33,0-.48-.04-.15-.04-.3-.11-.4-.17-.09-.06-.21-.17-.26-.24-.07-.09-.12-.19-.14-.26,0-.02,0-.04-.01-.04-.02-.13.02-.24.09-.33.06-.07.15-.12.26-.14.3-.03.59-.1.9-.22.43-.17.79-.43,1.04-.67.31-.29.6-.7.81-1.15.14-.29.23-.63.27-.9.03-.25.04-.61-.05-.99-.11-.45-.37-.84-.65-1.1-.13-.11-.35-.27-.58-.37-.31-.14-.64-.21-1.01-.24-.3-.02-.63,0-.96.06-.02,0-.06.01-.09.02-.41.08-.85.25-1.18.43-.61.34-1.15.79-1.64,1.43-.35.45-.64,1.03-.83,1.65,0,.01,0,.02-.01.03-.12.35-.44,1.45-.47,1.58-.11.35-.25.77-.4,1.15-.1.25-.24.51-.32.62-.09.12-.21.24-.36.29-.08.03-.17.03-.24.02-.11-.02-.17-.07-.21-.11-.06-.06-.09-.14-.11-.21,0-.04-.01-.11,0-.17,0-.06.01-.13.03-.22.02-.13.09-.37.12-.49.05-.18.17-.62.22-.83.06-.24.16-.62.24-.98.03-.15.08-.45.1-.59.02-.12.04-.32.04-.47,0-.09,0-.28-.01-.35-.13-1.06-1.05-1.83-2.1-1.78-.05,0-.11,0-.15.01-.06,0-.18.02-.23.03-.08.01-.23.04-.31.06-.08.02-.26.08-.31.1-.54.22-1.06.55-1.56.98-.02.01-.1.09-.23.11-.21.03-.4-.11-.44-.32,0-.02,0-.06,0-.09,0-.02,0-.06.01-.08.14-.62.31-1.19.5-1.78.16-.51.31-.88.4-1.17.08-.25.2-.57.13-1.05-.02-.12-.04-.24-.08-.35,0,0-.02-.05-.02-.06,0-.01-.02-.06-.02-.06-.08-.19-.15-.32-.21-.53-.06-.21-.01-.43.05-.56.04-.07.11-.22.27-.34.05-.04.14-.09.27-.14.1-.03.23-.07.3-.09.13-.04.22-.09.29-.13.06-.04.18-.12.25-.17.02-.02.06-.04.08-.06.04-.03.11-.08.15-.1.06-.03.19-.09.32-.11.17-.02.29,0,.39.02.11.02.2.06.43.11.35.08.73.11,1.13.05.39-.06.72-.2.98-.35,0,0,0,0,0,0,0,0,0,0,.01,0,.12-.07.23-.15.31-.21,0,0,.01-.01.02-.02,0,0,0,0,.01-.01,0,0,0,0,0,0,.14-.11.25-.2.34-.29.18-.15.44-.42.73-.73.43-.46.95-1.01,1.35-1.45.14-.16.26-.2.38-.22.29-.04.52.15.59.37,0,.03.03.08.03.1.06.19.2.72.49,1.06.33.38.92.89,2.09.72,1.03-.14,1.74-1,2-1.35.04-.05.15-.2.15-.2,0,0,.1-.14.18-.2.12-.09.26-.11.33-.11.07,0,.2.01.34.12.06.04.17.18.22.25.2.26.38.44.69.59.33.17.72.24,1.2.17.15-.02.44-.08.68-.22.2-.11.36-.24.47-.34.13-.12.2-.2.34-.22.21-.03.41.11.44.33,0,.04,0,.08,0,.15-.04.18-.12.3-.23.45,0,0-.1.13-.16.19-.55.6-.97.77-1.29,1.03-.29.23-.47.45-.59.79-.13.34-.16.94.16,1.43.15.23.4.47.73.62.06.03.12.06.17.08.18.08.39.22.44.54.04.28-.1.46-.16.54Z"/>
      </g>
    </g>
  </g>
</svg>
