<?xml version="1.0" encoding="UTF-8"?>
<svg id="_레이어_2" data-name="레이어 2" xmlns="http://www.w3.org/2000/svg" viewBox="0 0 297.48 118.46">
  <defs>
    <style>
      .cls-1 {
        fill: none;
      }

      .cls-1, .cls-2 {
        stroke-width: 0px;
      }

      .cls-2 {
        fill: #f7f3e6;
      }
    </style>
  </defs>
  <g id="_레이어_1-2" data-name="레이어 1">
    <g>
      <rect class="cls-1" x="0" width="297.48" height="118.46"/>
      <g>
        <polygon class="cls-2" points="0 76.66 13.41 76.66 13.41 118.46 23.68 118.46 23.68 76.66 37.09 76.66 37.09 67.11 0 67.11 0 76.66"/>
        <rect class="cls-2" x="43.22" y="67.11" width="10.27" height="51.35"/>
        <polygon class="cls-2" points="84.15 97.2 70.89 67.11 59.62 67.11 59.62 118.46 69.32 118.46 69.32 84.22 80.44 110.26 87.86 110.26 98.99 84.22 98.99 118.46 108.69 118.46 108.69 67.11 97.42 67.11 84.15 97.2"/>
        <polygon class="cls-2" points="114.82 118.46 148.41 118.46 148.41 108.76 125.09 108.76 125.09 97.06 143.99 97.06 143.99 87.36 125.09 87.36 125.09 76.81 148.41 76.81 148.41 67.11 114.82 67.11 114.82 118.46"/>
        <path class="cls-2" d="M183.85,98.99c4.28-1.21,6.99-4.85,6.99-9.7v-12.05c0-5.99-4.14-10.13-10.13-10.13h-26.17v51.35h10.27v-19.04h8.27l8.27,19.04h11.05l-8.56-19.47ZM180.57,87.43c0,1.57-.86,2.42-2.42,2.42h-13.34v-13.05h13.34c1.57,0,2.42.86,2.42,2.43v8.2Z"/>
      </g>
    </g>
  </g>
</svg>