<?xml version="1.0" encoding="UTF-8"?>
<svg id="_레이어_2" data-name="레이어 2" xmlns="http://www.w3.org/2000/svg" viewBox="0 0 212.92 118.46">
  <defs>
    <style>
      .cls-1 {
        fill: var(--brand-color);
        stroke-width: 0px;
      }
    </style>
  </defs>
  <g id="_레이어_1-2" data-name="레이어 1">
    <g>
      <polygon class="cls-1" points="78.77 34.81 78.77 34.81 78.77 34.81 78.77 34.81"/>
      <path class="cls-1" d="M210.7,101.49c-1.15,0-1.73.82-1.79.9s-.14.2-.19.26c-.06.08-.16.24-.21.33-.89,1.41-2.12,2.91-3.14,3.89-.66.63-1.69,1.36-2.3,1.75-.44.28-1.34.75-1.85.96-.62.24-1.43.48-2.12.57-.22.03-.52.05-.84.07-.37.01-.73,0-1.06-.02-.58-.05-1.35-.2-1.95-.44-.59-.23-1.18-.62-1.52-.94-.34-.31-.75-.82-.91-1.11-.23-.4-.38-.84-.43-1.17-.01-.08-.02-.16-.02-.19-.02-.54.21-.99.55-1.29.3-.26.69-.42,1.14-.41,1.23.03,2.49-.08,3.79-.39,1.84-.43,3.48-1.31,4.65-2.13,1.43-1.01,2.85-2.51,3.97-4.22.73-1.11,1.31-2.45,1.61-3.53.27-.99.5-2.46.35-4.08-.17-1.91-1.02-3.64-2.04-4.87-.47-.54-1.28-1.29-2.16-1.86-1.17-.75-2.51-1.25-4.01-1.57-1.2-.26-2.59-.37-3.96-.33-.09,0-.27.01-.38.02-1.72.09-3.62.52-5.06,1.07-2.68,1.02-5.16,2.56-7.53,4.89-1.88,1.86-3.58,4.42-4.77,7.16-.85,1.95-1.38,4-1.67,5.98l-.04.26c-.13.82-.82,1.39-1.61,1.38-.53,0-1.03-.27-1.31-.69-.02-.03-.13-.2-.16-.24-.15-.24-.32-.58-.42-.76-.13-.23-.44-.84-.49-.94-.87-1.74-1.43-3.2-1.38-4.67.06-1.54,1.02-2.82,1.66-3.61.31-.37.9-1.15,1.17-1.56.45-.67.83-1.38.83-2.31,0-3.25-5.04-6.02-11.61-6.02-2.46,0-4.38.37-5.77.8-1.84.56-5.41,1.9-6.15,5.45-.1.49-.21,1.4-.31,1.98-.17,1.02-.35,1.86-.39,2.03-1.02,4.36-3.41,9.31-6.23,12.56-.63.73-1.68,1.83-2.63,2.6-1.71,1.4-2.47,1.73-3.34,2.17-.61.3-1.88.71-2.6.84-.66.12-1.56.16-2.26.1-.58-.05-1.35-.2-1.95-.44-.59-.23-1.18-.62-1.52-.94-.34-.31-.75-.82-.91-1.11-.23-.4-.38-.84-.43-1.17-.01-.08-.02-.16-.02-.19-.02-.54.21-.99.55-1.29.3-.26.69-.42,1.14-.41,1.23.03,2.49-.08,3.79-.39,1.84-.43,3.48-1.31,4.65-2.13,1.43-1.01,2.85-2.51,3.97-4.22.73-1.11,1.31-2.45,1.61-3.53.27-.99.5-2.46.35-4.08-.17-1.91-1.02-3.64-2.04-4.87-.47-.54-1.28-1.29-2.16-1.86-.56-.36-1.17-.66-1.8-.91-.2-.08-.45-.17-.6-.22s-.42-.16-.6-.23c-1.14-.48-1.86-1.4-1.86-2.6s.67-2.02,1.65-2.53c.11-.06.18-.09.24-.12.06-.03.15-.07.22-.11,3.29-1.56,5.7-4.4,7.15-6.44,1.61-2.27,3.34-5.7,4.98-10.02,1.61-4.24,3.79-6.25,5.51-8.16,6.04-6.71,8.98-11.39,10.91-14.49,0,0,.32-.49.32-1.15,0-1.26-1.02-2.27-2.28-2.27-.97,0-1.54.63-1.94,1.13-.82,1.02-2.57,3.65-4.17,4.94-.29.23-.67.39-1.07.39-.8,0-1.46-.58-1.59-1.34-.02-.09-.02-.21-.02-.27,0-.07.01-.22.02-.29,0-.07.03-.18.04-.27.19-1.16.28-1.75.44-2.97.27-2.05.47-3.92.55-5.2.01-.22.03-.67.02-.89,0-.12-.02-.48-.02-.52-.04-2.27-1.1-3.89-2.14-4.87-.64-.6-1.38-1.05-2.15-1.33-.76-.28-1.54-.39-2.23-.39-.97,0-1.82.18-2.72.59-.5.23-.95.5-1.04.55-.7.4-1.37.73-2.28.73-1.07,0-1.71-.35-2.54-.71-.83-.36-2.66-1.16-5.36-1.16-4.05,0-7,1.62-9.72,4.24-1.16,1.19-2.16,2.6-3.01,4.13-.03.05-.15.26-.18.32-1.44,2.52-3.6,7.39-4.75,9.86-.85,1.83-2.6,5.48-3.91,7.02-.24.28-.68.75-1.09,1.02-.48.31-.82.42-1.31.42-.78,0-1.46-.5-1.63-1.28-.16-.72.1-1.52.45-2.4.18-.45.49-1.19.68-1.64.54-1.29,1.22-2.83,1.62-3.8.41-.97,1.2-2.92,1.57-3.9.45-1.18,1.24-3.38,1.64-4.78.21-.74.37-1.6.37-2.17,0-1.06-.32-2.01-.75-2.72-.05-.09-.13-.21-.17-.28-.05-.08-.2-.29-.22-.31-.23-.32-.43-.66-.52-1.05-.15-.64-.01-1.37.51-1.93.26-.28.6-.49,1.03-.66.15-.06.41-.16.61-.25h0c1.81-.77,3.32-2.23,4.08-4.21,1.5-3.88-.42-8.23-4.29-9.74-3.88-1.5-8.23.42-9.74,4.29-.77,1.99-.64,4.1.19,5.89.08.19.19.41.26.55.2.42.31.8.31,1.18,0,.77-.39,1.4-.93,1.77-.33.22-.7.35-1.09.42-.09.02-.26.05-.34.06s-.25.05-.36.07c-.29.06-.57.16-.85.27-1.08.46-2.07,1.31-2.69,2.52-.29.58-.5,1.13-.64,1.52-.18.49-.52,1.48-.69,1.97-.16.47-.4,1.23-.59,1.87-.08.26-.16.53-.23.8h0c-1.35,4.52-2.63,7.38-3.79,8.59-.02.02-.09.08-.12.11-.03.03-.11.1-.13.12-.18.15-.58.46-1.17.46-.88,0-1.6-.69-1.6-1.6,0-.54.09-1.41.11-2,.02-1,0-1.98-.14-2.93-.77-5.74-4.13-10.38-9.05-11.58-.77-.19-1.57-.28-2.36-.28-1.49,0-2.97.32-4.23.94-.1.05-.3.14-.5.25-.26.13-.52.22-.84.22-.92,0-1.61-.74-1.61-1.61,0-.37.13-.67.22-.88.63-1.48,1.29-2.94,1.99-4.39.96-2,1.78-3.4,2.35-4.54.48-.97,1.11-2.26,1.11-4.22,0-4.27-3.43-8.21-8.21-8.21-4.34,0-6.85,3.2-7.55,4.98-.12.29-.26.59-.39.91-.29.7-.57,1.48-.85,2.3-.83,2.42-1.63,5.18-2.4,8.29-.77,3.11-1.47,6.37-2.1,9.79-.63,3.42-1.17,6.78-1.62,10.08-.45,3.3-.77,6.37-.96,9.2-.16,2.38-.33,4.49-.27,6.26,0,.27.03.59.04.79s.04.45.1.77c.14.8.36,1.45.41,1.93.02.18.07.63-.04,1.17-.11.53-.36,1.13-.84,1.64-.34.36-.72.6-.98.73-.73.36-1.59.39-2.21.4-.02,0-.33,0-.44,0-.1,0-.33.01-.42.02-3.39.24-5.85,2.48-6.92,4.93-.41.92-.85,2.04-1.25,3.23-.83,2.42-1.63,5.18-2.4,8.29-.77,3.11-2.1,9.79-2.1,9.79,0,0-.76,4.47-1.04,5.95-.81,4.35-1.86,7.62-3.16,9.86-1.72,2.97-3.65,4.76-5.36,5.9-1.65,1.1-3.76,2.09-6.39,2.23-1.4.07-3.77-.1-5.59-1.87-1.52-1.48-2.07-3.4-2-5.31.04-1.3.27-3.01,1.18-5.07.61-1.38,1.85-3.2,2.97-4.03.3-.22.77-.55,1.39-.55.88,0,1.6.71,1.6,1.6,0,.16-.03.38-.05.5-.03.21-.06.5-.04.84.12,2.56,2.27,4.27,4.53,4.19,1.55-.05,2.6-.87,3.29-1.66.59-.68.97-1.43,1.19-1.97.41-1.02.65-2.06.73-3.45.09-1.59-.25-2.97-.68-4.1-.54-1.42-1.48-2.72-2.17-3.43-.63-.65-1.5-1.41-2.69-2.02-2.05-1.04-3.86-1.3-5.43-1.4-.48-.03-1.07-.04-1.63-.01-1.77.08-4.3.49-6.95,1.78-3.38,1.64-5.6,3.72-6.95,5.3-2.26,2.63-3.39,5.22-4.07,6.96-.55,1.4-1.94,5.63-1.54,10.07.22,2.45,1.02,4.56,1.89,5.99,1.16,1.9,2.57,3.38,4.78,4.64,3.9,2.23,8.73,2.02,8.94,2.02,1.03,0,3.3-.1,5.83-.77,4.06-1.07,6.89-2.97,9.49-4.99,0,0,1.16-.99,1.59-1.26.19-.12.6-.43,1.36-.43,1.1,0,1.74.7,2.07,1.46.09.21.19.51.24.64.2.55.43,1.19.75,1.8,1.19,2.27,3.37,3.56,5.6,3.56,3.9,0,5.74-2.76,6.32-4.39.27-.78.41-1.81.47-2.21.5-3.43,1.09-6.64,1.83-9.02.95-3.04,1.92-5.44,2.9-7.13.13-.22.35-.57.55-.85.46-.61.99-.97,1.76-.96.98,0,1.87.76,1.66,2.19-.04.25-.14.74-.2.98-.08.34-.25,1.02-.35,1.36-.31,1.1-.85,3.29-1.09,4.4-.16.72-.72,2.8-.76,5.04-.04,2.42.34,3.68.79,4.81.57,1.43,1.5,2.92,3.07,4.06,1.42,1.03,3.35,1.7,5.51,1.7,3.45,0,5.79-1.25,7.39-2.34s2.91-2.55,3.75-3.55c.01-.02.37-.42.47-.53.7-.76,1.44-.78,1.71-.78.43,0,1.1.12,1.68.75.05.07.14.16.18.22.12.15.35.47.47.63.15.2.52.66.63.79.57.66,1.22,1.27,1.95,1.82,3.53,2.68,7.85,2.99,10.43,2.99,2.97,0,5.37-.6,7.38-1.3,1.76-.62,3.98-1.59,6.5-3.62.42-.34.81-.67,1.19-1.01,0,0,.69-.63.92-.84.21-.2.62-.59.83-.78.15-.14.42-.39.62-.54.17-.13.64-.45,1.36-.45.87,0,1.46.45,1.86.96.09.11.38.51.51.68.25.35.55.8.99,1.36.71.94,1.56,1.8,2.56,2.55,3.37,2.51,7.46,2.99,10.43,2.99,1.58,0,3.65-.32,4.89-.64,3.63-.94,6.53-2.68,8.89-4.78.13-.12.3-.26.4-.35.09-.08.47-.44.76-.62.58-.36,1.14-.33,1.18-.33.54,0,1.13.19,1.65.74.13.14.63.71.84.97.53.64,1.3,1.42,2.1,2.02,3.53,2.68,7.85,2.99,10.43,2.99.2,0,.38,0,.55-.01,2.72-.07,4.95-.63,6.83-1.29,1.76-.62,3.98-1.59,6.5-3.62.44-.35.84-.71,1.24-1.05.09-.08.58-.53.92-.71.44-.23.81-.26,1.06-.26.56,0,1.14.19,1.64.72.15.16.37.48.52.68.7.94,1.55,1.8,2.55,2.56,3.53,2.68,7.85,2.99,10.43,2.99,2.05,0,3.88-.34,4.35-.43,6.12-1.17,11.42-5.23,15.17-11.42.19-.31,1.13-1.85,1.13-2.9,0-1.22-.99-2.22-2.22-2.22ZM135.33,39.95c2.77-7.62,4.46-8.02,5.54-7.62,1.07.39,2.11,1.78-.66,9.4-2.77,7.62-4.46,8.02-5.54,7.62s-2.12-1.78.66-9.4ZM72.86,39.94c2.77-7.62,4.46-8.02,5.54-7.62s2.12,1.78-.66,9.4c-2.77,7.62-4.46,8.02-5.54,7.62-1.07-.39-2.11-1.78.66-9.4ZM119.9,87.68c-2.37,2.35-4.06,5.35-5.32,8.26-1.56,3.58-3.5,6.82-5.18,8.67-.75.82-1.92,2.05-3.22,3.05-.63.49-1.69,1.19-2.65,1.61-1.13.49-1.88.71-2.6.84-.66.12-1.56.16-2.26.1-.58-.05-1.35-.2-1.95-.44-.59-.23-1.18-.62-1.52-.94-.34-.31-.75-.82-.91-1.11-.23-.4-.38-.84-.43-1.17-.01-.08-.02-.16-.02-.19-.02-.54.21-.99.55-1.29.3-.26.69-.42,1.14-.41,1.23.03,2.49-.08,3.79-.39,1.84-.43,3.48-1.31,4.65-2.13,1.43-1.01,2.85-2.51,3.97-4.22.73-1.11,1.31-2.45,1.61-3.53.27-.99.5-2.46.35-4.08-.17-1.91-1.02-3.64-2.04-4.87-.47-.54-1.28-1.29-2.16-1.86-1.17-.75-2.51-1.25-4.01-1.57-1.2-.26-2.59-.37-3.96-.33-.09,0-.27.01-.38.02-1.72.09-3.62.52-5.06,1.07-2.68,1.02-5.16,2.56-7.53,4.89-1.67,1.65-3.2,3.86-4.36,6.26-.02.04-.04.08-.06.12-.67,1.38-2.61,5.67-2.85,6.17-.64,1.36-1.47,3-2.31,4.46-.55.95-1.27,1.95-1.67,2.36-.43.44-1.01.88-1.62,1-.35.07-.71.05-.98-.04-.43-.14-.66-.39-.81-.58-.22-.29-.3-.63-.32-.94-.01-.17.02-.46.06-.68.04-.23.13-.5.26-.9.17-.5.57-1.44.77-1.92.3-.73,1.04-2.44,1.39-3.25.4-.96,1.01-2.43,1.54-3.85.22-.6.59-1.79.75-2.37.13-.47.34-1.3.43-1.89.06-.35.14-1.15.14-1.43.08-4.41-3.23-8.08-7.55-8.48-.21-.02-.47-.03-.63-.03-.24,0-.73-.01-.97,0-.33,0-.98.04-1.3.08-.33.04-1.1.18-1.31.23-2.34.58-4.64,1.62-6.96,3.11-.08.05-.47.32-.99.32-.88,0-1.58-.7-1.61-1.57,0-.07.02-.26.03-.35.02-.08.06-.23.09-.32.93-2.44,1.96-4.68,3.06-6.97.96-2,1.75-3.4,2.32-4.54.48-.97,1.14-2.23,1.14-4.22,0-.5-.05-.99-.13-1.47,0,0-.04-.21-.05-.28-.01-.06-.05-.24-.06-.25-.2-.83-.45-1.38-.57-2.27-.12-.9.19-1.78.51-2.25.19-.28.56-.83,1.31-1.23.23-.12.64-.3,1.2-.4.44-.08.96-.14,1.27-.2.55-.1.95-.24,1.24-.36s.81-.39,1.11-.57c.09-.05.26-.15.35-.2.17-.1.49-.25.69-.33.26-.11.82-.28,1.38-.28.7,0,1.19.15,1.6.3.43.16.77.35,1.7.72,1.36.54,2.92.85,4.6.85s3.07-.41,4.19-.88c0,0,0,0,0,0,.02,0,.03-.01.05-.02.55-.23,1.02-.48,1.41-.69.03-.02.07-.04.1-.05.02-.01.04-.02.06-.03,0,0,.02-.01.03-.02.63-.36,1.13-.69,1.56-.97.81-.53,2.04-1.47,3.42-2.57,2.04-1.62,4.45-3.57,6.37-5.15.67-.56,1.17-.69,1.69-.69,1.22,0,2.04.93,2.22,1.86.02.11.06.33.08.45.12.81.39,3.05,1.41,4.63,1.12,1.74,3.23,4.16,8.14,4.16,4.29,0,7.68-3.1,8.97-4.36.19-.18.75-.74.75-.74,0,0,.49-.51.87-.71.55-.31,1.11-.3,1.41-.25.29.05.8.16,1.31.69.21.22.59.84.76,1.14.68,1.19,1.32,2.01,2.48,2.82,1.26.88,2.79,1.4,4.81,1.4.65,0,1.84-.09,2.92-.49.86-.32,1.61-.78,2.12-1.14.6-.43.92-.69,1.51-.69.87,0,1.61.7,1.61,1.6,0,.15-.01.31-.12.6-.28.7-.65,1.18-1.19,1.7,0,0-.46.46-.75.7-2.58,2.13-4.41,2.6-5.88,3.47-1.32.78-2.16,1.58-2.87,2.88-.71,1.31-1.2,3.77-.17,5.94.5,1.05,1.35,2.14,2.63,2.95.24.16.47.31.65.42.67.43,1.47,1.14,1.47,2.45,0,1.16-.66,1.84-.99,2.13-.2.18-.61.49-1.46.78-.25.08-.5.17-.74.26-2.68,1.02-5.16,2.56-7.53,4.89ZM96.57,92.21c3.27-2.95,4.99-2.44,5.55-1.83.56.62.88,2.38-2.4,5.32-3.27,2.95-4.99,2.45-5.55,1.83-.55-.62-.88-2.38,2.4-5.32ZM131.72,92.21c3.27-2.95,4.99-2.44,5.55-1.83.56.62.88,2.38-2.4,5.32-3.27,2.95-4.99,2.45-5.55,1.83-.55-.62-.88-2.38,2.4-5.32ZM159.94,108.28c-.09.52-.3.92-.57,1.21-.28.31-.96.83-2.02.72-.59-.06-1.2-.2-1.91-.55-1.1-.53-2.11-1.39-3.04-2.57-.32-.41-.59-.84-.82-1.31-.78-1.62-.61-3.21.28-5.08.06-.12.54-1.25,1.21-1.99.47-.51,1.21-.94,2.06-.85.46.05,1.09.29,1.65,1.1.56.82,1.27,2.34,1.62,3.16.28.65.76,1.86,1.01,2.62.09.28.21.69.27.91.09.35.23,1.02.27,1.39.03.31.06.83,0,1.24ZM195.11,92.21c3.27-2.95,4.99-2.44,5.55-1.83.56.62.88,2.38-2.4,5.32-3.27,2.95-4.99,2.45-5.55,1.83-.55-.62-.88-2.38,2.4-5.32Z"/>
      <path class="cls-1" d="M168.91,27.92c-1.64,0-2.96,1.33-2.96,2.96s1.33,2.96,2.96,2.96,2.96-1.33,2.96-2.96-1.33-2.96-2.96-2.96ZM168.91,32.54c-.92,0-1.66-.74-1.66-1.66s.74-1.66,1.66-1.66c.78,0,1.44.54,1.61,1.27h-.8c-.15-.3-.45-.51-.81-.51-.5,0-.91.41-.91.91s.41.91.91.91c.37,0,.69-.22.83-.54h.79c-.17.74-.83,1.3-1.62,1.3Z"/>
    </g>
  </g>
</svg>
