<?xml version="1.0" encoding="UTF-8"?>
<svg id="_레이어_2" data-name="레이어 2" xmlns="http://www.w3.org/2000/svg" viewBox="0 0 680.31 680.31">
  <defs>
    <style>
      .cls-1 {
        fill: #d31176;
      }

      .cls-1, .cls-2, .cls-3, .cls-4, .cls-5, .cls-6 {
        stroke-width: 0px;
      }

      .cls-2 {
        fill: #f2de6e;
      }

      .cls-3 {
        fill: #f7f3e6;
      }

      .cls-4 {
        fill: #970054;
      }

      .cls-5 {
        fill: #f4c21d;
      }

      .cls-6 {
        fill: #fff;
      }
    </style>
  </defs>
  <g id="_레이어_1-2" data-name="레이어 1">
    <rect class="cls-5" y="0" width="680.31" height="680.31" rx="119.06" ry="119.06"/>
    <g>
      <rect class="cls-3" x="56.69" y="56.69" width="566.93" height="566.93" rx="62.36" ry="62.36"/>
      <path class="cls-1" d="M119.06,56.69h442.2c34.42,0,62.36,27.94,62.36,62.36v79.37H56.69v-79.37c0-34.42,27.94-62.36,62.36-62.36Z"/>
      <circle class="cls-4" cx="198.43" cy="127.56" r="35.43"/>
      <circle class="cls-4" cx="481.89" cy="127.56" r="35.43"/>
      <rect class="cls-6" x="170.08" y="14.17" width="56.69" height="141.73" rx="28.35" ry="28.35"/>
      <rect class="cls-6" x="453.54" y="14.17" width="56.69" height="141.73" rx="28.35" ry="28.35"/>
    </g>
    <g>
      <path class="cls-2" d="M119.56,513.03c20.18-33.73,31.9-84.02,45.27-107.51,4.1-7.2,18.41-43.75,43.41-43.75,22.16,0,34.33,23.74,39.18,36.16,13.6,34.78,46.04,100.09,77.19,122.56,19.47,14.04,59.97,28.87,105.54,0,17.7-11.22,63.94-46.94,92.84-46.94,60.48,0,51.34,59.69,75.06,92.31,6.07,8.34,11.11,13.8,20.72,19.56,0,0-9.8,30.22-47.11,37.35-103.19,19.69-370.97,24.28-466.46-.34-37.19-9.59-45.5-42-45.5-42,24.93-19.17,38.9-32.33,59.87-67.39Z"/>
      <path class="cls-5" d="M155.61,602.58c15.16-23.47,22.72-57.55,32.71-73.86,3.06-5,13.3-30.05,33.78-31.3,18.15-1.11,29.08,14.09,33.56,22.12,12.56,22.48,41.78,64.35,68.21,77.75,16.52,8.38,50.3,16.23,86.45-5.28,14.04-8.36,50.46-34.45,74.14-35.9,49.54-3.02,44.48,37.19,65.23,57.72,5.31,5.25,16.17,15.34,41.29,2.27,1.2-.63-28.15,19.4-54.2,21.12-86.02,5.67-326.3,12.83-407.15,13.01-20.34.04-25.87,11.73-14.82,14.71,6.21,1.68-27.18-49.92-23.87-48,18.78,10.93,48.92,10.04,64.68-14.36Z"/>
    </g>
  </g>
</svg>
