<?xml version="1.0" encoding="UTF-8"?>
<svg id="_레이어_2" data-name="레이어 2" xmlns="http://www.w3.org/2000/svg" viewBox="0 0 680.31 897.98">
  <defs>
    <style>
      .cls-1 {
        fill: #eeb033;
      }

      .cls-1, .cls-2, .cls-3, .cls-4, .cls-5, .cls-6, .cls-7 {
        stroke-width: 0px;
      }

      .cls-2 {
        fill: #d31176;
      }

      .cls-3 {
        fill: #f2de6e;
      }

      .cls-4 {
        fill: none;
      }

      .cls-5 {
        fill: #f7f3e6;
      }

      .cls-6 {
        fill: #f4c21d;
      }

      .cls-7 {
        fill: #1c96d4;
      }
    </style>
  </defs>
  <g id="_레이어_1-2" data-name="레이어 1">
    <g>
      <path class="cls-6" d="M629.55,156.04c-22.67-15.73-53.85-25.74-72.03-49.33-18.47-23.96-18.51-42.78-46.1-55.29s-65.2,22.98-81.93,37.02c-46.78,39.26-87.58,25.78-103.42,17.86-31.06-15.52-66.5-57.38-85.27-82.31C234.91,16.2,223.34-.38,201.18,0c-25,.44-36.73,18.97-42.88,30.62-10.07,19.06-15.63,47.62-37.35,74.18-20.15,24.64-49.07,34.5-73.1,53.35-2.52,1.98,12.69,6.63,18.71,8.37-11.59-3.88-3.9-14.84,20.07-14.08,68.53,2.19,231.29,2.54,359.29,1.79,53.82.81,101.11,1.21,132.08,1.04,31.81-.17,54.74,2.99,51.54.77Z"/>
      <path class="cls-6" d="M66.56,166.52c.38.13.78.25,1.2.36,2.1.56,1.16.32-1.2-.36Z"/>
    </g>
    <rect class="cls-6" x="0" y="134.52" width="680.31" height="680.31" rx="119.06" ry="119.06"/>
    <path class="cls-3" d="M576.35,193.06c-18.05-5.71-34.63-16.19-50.22-29.51-19.6-16.74-24.09-37.64-41.9-44.01-26.89-9.63-54.85,16.76-77.89,34.1-17.13,12.9-27.74,18.28-46.32,20.1s-33.98-3.18-43.58-6.91c-12.48-4.85-26.04-14.97-40.14-31.49-17.86-20.94-29.93-55.43-50.56-52.07-26.85,4.37-26.81,48.68-71.95,81.56-21.28,15.5-75.59,36.08-75.58,98.54,0,3.72,42.02-29.9,63.22-29.72,47.28.4,117.48-29.54,211.72-31.54l-.02,8.36c59.09-4.31,116.39-8.83,156.44-12.37,10.17-.33,19.32-.64,27.22-.94,7.18-.27,14.06-.42,20.29-.49,22.39,2.77,20.21-3.3,19.27-3.6Z"/>
    <rect class="cls-4" x="118.2" y="814.84" width="443.91" height="83.14"/>
    <g>
      <rect class="cls-5" x="56.69" y="191.22" width="566.93" height="566.93" rx="62.36" ry="62.36"/>
      <rect class="cls-1" x="281.1" y="521.92" width="118.11" height="236.22"/>
      <rect class="cls-2" x="452.36" y="285.7" width="118.11" height="472.44"/>
      <rect class="cls-7" x="109.84" y="403.81" width="118.11" height="354.33"/>
    </g>
    <path class="cls-6" d="M533.17,700.51c-5.42-23.53-1.63-45.2-13.31-65.74-3.58-6.3-8.71-9.32-15.99-9.32-11.33,0-20.12,11.37-22.39,14.56-33.79,47.52-77.26,76.65-102.11,86.15-17.56,6.72-61.64,15.41-106.6-6.28-16.5-7.96-64.74-50.48-90.01-50.48-52.88,0-44.88,52.18-65.62,80.69-5.3,7.29-11.41,6.83-16.13,5.5-1.46-.41,3.56,19.79,31.38,19.96,91.83.55,347.79-5.16,433.77-11.39,21.63-1.57,30.76-15.64,19.2-10.86-6.49,2.69-11.71,2.03-16.03,1.41-27.29-3.96-30.65-30.28-36.16-54.21Z"/>
  </g>
</svg>
