<?xml version="1.0" encoding="UTF-8"?>
<svg id="_레이어_2" data-name="레이어 2" xmlns="http://www.w3.org/2000/svg" viewBox="0 0 680.31 847.29">
  <defs>
    <style>
      .cls-1 {
        fill: #f2de6e;
      }

      .cls-1, .cls-2 {
        stroke-width: 0px;
      }

      .cls-2 {
        fill: #f4c21d;
      }
    </style>
  </defs>
  <g id="_레이어_1-2" data-name="레이어 1">
    <g>
      <path class="cls-2" d="M680.31,507.13c0-67.34-19.57-130.09-53.33-182.91-4.4-6.89-225.73-297.6-229.74-302.23-11.62-13.46-28.81-21.99-48-21.99s-37.08,8.88-48.71,22.83c-1.83,2.2-108.31,131.01-108.31,131.01l-50.41-40.27s-.49-.4-.73-.59c-10.93-8.94-24.9-14.32-40.12-14.32-32.32,0-58.99,24.17-62.92,55.43-.33,2.62-2.56,25.82-3.46,33.61C26.13,260.73,2.51,465.16,1.8,472c-1.19,11.55-1.8,23.27-1.8,35.13,0,187.86,152.29,340.16,340.16,340.16,88.67,0,169.4-33.94,229.95-89.52,2.83-.25,4.35-.39,4.35-.39l2.54-6.12c63.71-61.82,103.32-148.34,103.32-244.13Z"/>
      <path class="cls-1" d="M460.73,449.48h.04s-110.91-125.52-110.91-125.52c-4.9-5.95-12.32-9.74-20.63-9.74-10.48,0-19.52,6.05-23.89,14.83l-89.08,135.03c-1.34,1.93-2.63,3.89-3.88,5.88l-.81,1.22h.02c-14.6,23.7-23.04,51.61-23.04,81.5,0,85.97,69.69,155.66,155.67,155.66s155.67-69.69,155.67-155.66c0-39.6-14.81-75.72-39.16-103.19Z"/>
    </g>
  </g>
</svg>