<?xml version="1.0" encoding="UTF-8"?>
<svg id="_레이어_2" data-name="레이어 2" xmlns="http://www.w3.org/2000/svg" viewBox="0 0 680.32 885.68">
  <defs>
    <style>
      .cls-1 {
        fill: #eeb033;
      }

      .cls-1, .cls-2, .cls-3, .cls-4, .cls-5, .cls-6 {
        stroke-width: 0px;
      }

      .cls-2 {
        fill: #d31176;
      }

      .cls-3 {
        fill: #f2de6e;
      }

      .cls-4 {
        fill: #f7f3e6;
      }

      .cls-5 {
        fill: #f4c21d;
      }

      .cls-6 {
        fill: #1c96d4;
      }
    </style>
  </defs>
  <g id="_레이어_1-2" data-name="레이어 1">
    <path class="cls-5" d="M626.7,224.96s-.12-.08-.17-.11c-3.15-2.07-6.4-3.99-9.75-5.76-7.28-4.39-14.6-9.33-18.73-15.01-23.72-32.61-14.58-92.31-75.06-92.31-28.9,0-75.14,35.72-92.84,46.94-45.57,28.88-86.07,14.05-105.54,0-31.16-22.47-63.59-87.77-77.19-122.56C242.57,23.74,230.4,0,208.24,0c-25.01,0-39.31,36.55-43.41,43.75-13.36,23.49-25.08,73.78-45.27,107.51-20.98,35.06-48.84,60.15-73.77,79.31h0C17.92,252.36,0,286.3,0,324.42v442.2c0,65.75,53.3,119.05,119.06,119.05h442.2c65.75,0,119.06-53.3,119.06-119.05v-442.2c0-41.58-21.32-78.17-53.61-99.46Z"/>
    <path class="cls-3" d="M155.61,240.81c15.16-23.47,22.72-57.55,32.71-73.86,3.06-5,13.3-30.05,33.78-31.3,18.15-1.11,29.08,14.09,33.56,22.12,12.56,22.48,41.78,64.35,68.21,77.75,16.52,8.38,50.3,16.23,86.45-5.28,14.04-8.36,50.46-34.45,74.14-35.9,49.54-3.02,44.48,37.19,65.23,57.72,5.31,5.25,16.19,9.1,24.3,12.46,1.25.52-11.35,6.09-37.4,7.81-86.02,5.67-326.11,15.96-406.96,16.13-20.34.04-25.87,11.73-14.82,14.71,6.21,1.68-19.52-3.63-16.4-5.85,19.64-14.01,41.45-32.11,57.21-56.51Z"/>
    <g>
      <rect class="cls-4" x="56.69" y="262.05" width="566.93" height="566.93" rx="62.36" ry="62.36"/>
      <rect class="cls-1" x="281.1" y="592.76" width="118.11" height="236.22"/>
      <rect class="cls-2" x="452.36" y="356.54" width="118.11" height="472.44"/>
      <rect class="cls-6" x="109.84" y="474.65" width="118.11" height="354.33"/>
    </g>
    <path class="cls-5" d="M533.17,771.35c-5.42-23.53-1.63-45.2-13.31-65.74-3.58-6.3-8.71-9.32-15.99-9.32-11.33,0-20.12,11.37-22.39,14.56-33.79,47.52-77.26,76.65-102.11,86.15-17.56,6.72-61.64,15.41-106.6-6.28-16.5-7.96-64.74-50.48-90.01-50.48-52.88,0-44.88,52.18-65.62,80.69-5.3,7.29-11.41,6.83-16.13,5.5-1.46-.41,3.56,19.79,31.38,19.96,91.83.55,347.79-5.16,433.77-11.39,21.63-1.57,30.76-15.64,19.2-10.86-6.49,2.69-11.71,2.03-16.03,1.41-27.29-3.96-30.65-30.28-36.16-54.21Z"/>
  </g>
</svg>