<?xml version="1.0" encoding="UTF-8"?>
<svg id="_레이어_2" data-name="레이어 2" xmlns="http://www.w3.org/2000/svg" viewBox="0 0 680.32 942.4">
  <defs>
    <style>
      .cls-1 {
        fill: #d31176;
      }

      .cls-1, .cls-2, .cls-3, .cls-4, .cls-5, .cls-6, .cls-7 {
        stroke-width: 0px;
      }

      .cls-2 {
        fill: #f2de6e;
      }

      .cls-3 {
        fill: none;
      }

      .cls-4 {
        fill: #f7f3e6;
      }

      .cls-5 {
        fill: #970054;
      }

      .cls-6 {
        fill: #f4c21d;
      }

      .cls-7 {
        fill: #fff;
      }
    </style>
  </defs>
  <g id="_레이어_1-2" data-name="레이어 1">
    <rect class="cls-3" x="100.98" y="814.84" width="478.35" height="127.56"/>
    <path class="cls-6" d="M629.59,156.08s-.37-.26-.54-.37c-2.26-1.57-4.58-3.07-6.96-4.48-21.67-13.18-48.32-23.42-64.58-44.51-18.47-23.96-20.48-47.26-46.1-55.29-29.5-9.24-65.2,22.98-81.93,37.02-46.78,39.26-87.58,25.78-103.42,17.86-31.06-15.52-66.5-57.38-85.27-82.31C234.91,16.2,223.34-.38,201.18,0c-25,.44-36.73,18.97-42.88,30.62-10.07,19.06-15.63,47.62-37.35,74.17-20.15,24.63-49.07,34.5-73.1,53.35C18.8,179.86,0,214.53,0,253.58v442.2c0,65.75,53.3,119.06,119.06,119.06h442.2c65.75,0,119.06-53.3,119.06-119.06V253.58c0-40.32-20.05-75.96-50.72-97.5Z"/>
    <path class="cls-2" d="M576.35,193.06c-18.05-5.71-34.63-16.19-50.22-29.51-19.6-16.74-24.09-37.64-41.9-44.01-26.89-9.63-54.85,16.76-77.89,34.1-17.13,12.9-27.74,18.28-46.32,20.1-18.48,1.81-33.98-3.18-43.58-6.91-12.48-4.85-26.04-14.97-40.14-31.49-17.86-20.94-29.93-55.43-50.56-52.07-26.85,4.37-26.81,48.68-71.95,81.56-21.28,15.5-75.59,36.08-75.58,98.54,0,3.72,42.02-29.9,63.22-29.72,47.28.4,117.48-29.54,211.72-31.54l-.02,8.36c59.09-4.31,116.39-8.83,156.44-12.37,10.17-.33,19.32-.64,27.22-.94,7.18-.27,14.06-.42,20.29-.49,22.39,2.77,20.21-3.3,19.27-3.6Z"/>
    <g>
      <rect class="cls-4" x="56.69" y="191.22" width="566.93" height="566.93" rx="62.36" ry="62.36"/>
      <path class="cls-1" d="M119.06,191.22h442.2c34.42,0,62.36,27.94,62.36,62.36v79.37H56.69v-79.37c0-34.42,27.94-62.36,62.36-62.36Z"/>
      <circle class="cls-5" cx="198.43" cy="262.08" r="35.43"/>
      <circle class="cls-5" cx="481.89" cy="262.08" r="35.43"/>
      <rect class="cls-7" x="170.08" y="148.7" width="56.69" height="141.73" rx="28.35" ry="28.35"/>
      <rect class="cls-7" x="453.54" y="148.7" width="56.69" height="141.73" rx="28.35" ry="28.35"/>
    </g>
    <path class="cls-6" d="M527.73,700.51c-5.42-23.53-2.78-69.71-29.3-75.06-38.44-7.76-56.35,69.14-124.5,100.72-17.06,7.9-61.64,15.41-106.6-6.28-16.5-7.96-64.74-50.48-90.01-50.48-52.88,0-35.81,61.66-64.9,76.95-9.16,4.82-24.09,4.89-34.72-3.89-1.17-.96,21.44,32.93,49.25,33.1,91.83.55,348.74,1.86,434.6-5.77,54.75-4.87,51.14-38.73,51.14-38.73-20.26,27.86-50.95,16.14-59.39,10.31-10.95-7.55-20.06-16.93-25.57-40.86Z"/>
  </g>
</svg>
