<svg xmlns="http://www.w3.org/2000/svg" id="_레이어_2" data-name="레이어 2" viewBox="0 0 54 54"><defs><style>.cls-1{fill:RGB(24,127,59);stroke-width:0}</style></defs><g id="_레이어_1-2" data-name="레이어 1"><circle cx="27" cy="27" r="27" style="stroke-width:0;fill:RGB(248,244,231)"/><path d="M33.27 24.5c-1.03 0-1.79.35-2.26 1.06V21.5h-1.96v10.8h1.96v-4.1c0-1.26.65-1.88 1.67-1.88.91 0 1.5.55 1.5 1.56v4.42h1.96v-4.66c0-.99-.27-1.74-.82-2.31-.53-.56-1.21-.83-2.05-.83M22.06 23.49c1.47 0 2.75.89 3.07 2.31h2.13c-.5-2.62-2.51-4.33-5.2-4.33-3.1 0-5.55 2.31-5.55 5.52s2.45 5.52 5.55 5.52c2.66 0 4.66-1.68 5.19-4.25h-2.14c-.37 1.34-1.61 2.2-3.05 2.2-1.89 0-3.47-1.45-3.47-3.47s1.39-3.5 3.47-3.5" class="cls-1"/><path d="M27 2C13.19 2 2 13.19 2 27s11.19 25 25 25 25-11.19 25-25S40.81 2 27 2m0 38.63c-.99 0-1.96-.09-2.9-.26l-.12-.05-5.59 4.15c-.25.18-.6 0-.6-.3v-6.52h-.02c-3.19-2.43-5.52-5.08-5.52-10.64 0-7.53 6.6-13.63 14.73-13.63s14.73 6.1 14.73 13.63-6.6 13.63-14.73 13.63Z" class="cls-1"/></g></svg>
