<?xml version="1.0" encoding="UTF-8"?>
<svg id="_레이어_2" data-name="레이어 2" xmlns="http://www.w3.org/2000/svg" viewBox="0 0 50 50">
  <defs>
    <style>
      .cls-1 {
        fill: #1c7b3a;
      }

      .cls-1, .cls-2 {
        stroke-width: 0px;
      }

      .cls-2 {
        fill: #fff;
      }
    </style>
  </defs>
  <g id="_레이어_1-2" data-name="레이어 1">
    <g>
      <circle class="cls-1" cx="25" cy="25" r="25"/>
      <path class="cls-2" d="M30.16,17.16c-7.67,0-11.31,3.02-11.31,10.16s3.64,10.16,11.31,10.16c.15,0,.3,0,.45,0,1.06,1.51,2.54,2.71,4.24,3.43.27.11.55-.14.46-.41-.34-1.13-.56-2.3-.65-3.47,4.6-1.08,6.8-4.15,6.8-9.7,0-7.14-3.64-10.16-11.31-10.16ZM25.5,28.82c-.83,0-1.51-.67-1.51-1.51s.67-1.51,1.51-1.51,1.51.67,1.51,1.51-.67,1.51-1.51,1.51ZM29.86,28.82c-.83,0-1.51-.67-1.51-1.51s.67-1.51,1.51-1.51,1.5.67,1.5,1.51-.67,1.51-1.5,1.51ZM34.21,28.82c-.83,0-1.51-.67-1.51-1.51s.67-1.51,1.51-1.51,1.51.67,1.51,1.51-.67,1.51-1.51,1.51Z"/>
      <path class="cls-2" d="M21.17,19.05c1.09-.96,2.48-1.65,4.2-2.07-1.38-2.12-3.96-3.07-7.81-3.07-6.12,0-9.03,2.41-9.03,8.11,0,4.44,1.76,6.88,5.43,7.75-.07.94-.25,1.87-.52,2.77-.07.22.16.42.37.33,1.35-.57,2.54-1.54,3.39-2.74.12,0,.24,0,.36,0,.28,0,.55,0,.81-.02-.14-.86-.21-1.79-.21-2.8,0-3.78.98-6.48,3.01-8.27Z"/>
    </g>
  </g>
</svg>