<?xml version="1.0" encoding="UTF-8"?>
<svg id="_레이어_2" data-name="레이어 2" xmlns="http://www.w3.org/2000/svg" viewBox="0 0 197.93 197.93">
  <defs>
    <style>
      .cls-1 {
        fill: #1c7b3a;
      }

      .cls-1, .cls-2 {
        stroke-width: 0px;
      }

      .cls-2 {
        fill: #fff;
      }
    </style>
  </defs>
  <g id="_레이어_1-2" data-name="레이어 1">
    <circle class="cls-1" cx="98.96" cy="98.96" r="98.96"/>
    <path class="cls-2" d="M135.79,83.72v-16.69c0-12.08-8.34-20.43-20.43-20.43h-32.8c-12.08,0-20.43,8.34-20.43,20.43v63.87c0,12.09,8.34,20.43,20.43,20.43h32.8c12.08,0,20.43-8.34,20.43-20.43v-16.69h-20.71v12.66c0,3.16-1.73,4.89-4.89,4.89h-22.44c-3.16,0-4.89-1.73-4.89-4.89v-55.82c0-3.16,1.73-4.89,4.89-4.89h22.44c3.16,0,4.89,1.73,4.89,4.89v12.66h20.71Z"/>
  </g>
</svg>