<?xml version="1.0" encoding="UTF-8"?>
<svg id="_레이어_2" data-name="레이어 2" xmlns="http://www.w3.org/2000/svg" viewBox="0 0 50 50">
  <defs>
    <style>
      .cls-1 {
        fill: rgb(24, 127, 59);
      }

      .cls-1, .cls-2 {
        stroke-width: 0px;
      }

      .cls-2 {
        fill: rgb(248, 244, 231);
      }
    </style>
  </defs>
  <g id="_레이어_1-2" data-name="레이어 1">
    <g>
      <circle class="cls-1" cx="25" cy="25" r="25"/>
      <path class="cls-2" d="M25,11.38c-8.14,0-14.73,6.1-14.73,13.63,0,5.56,2.33,8.21,5.52,10.63h.02v6.53c0,.31.35.48.6.3l5.59-4.15.12.05c.94.17,1.9.26,2.9.26,8.14,0,14.73-6.1,14.73-13.63s-6.6-13.63-14.73-13.63ZM20.06,28.46c1.44,0,2.68-.86,3.05-2.2h2.14c-.52,2.57-2.52,4.25-5.19,4.25-3.1,0-5.55-2.31-5.55-5.52s2.45-5.52,5.55-5.52c2.69,0,4.71,1.72,5.2,4.33h-2.13c-.32-1.42-1.6-2.31-3.07-2.31-2.08,0-3.47,1.49-3.47,3.5s1.57,3.47,3.47,3.47ZM34.14,30.3h-1.96v-4.42c0-1.02-.59-1.56-1.5-1.56-1.02,0-1.67.62-1.67,1.88v4.1h-1.96v-10.8h1.96v4.06c.47-.71,1.23-1.06,2.26-1.06.84,0,1.52.27,2.05.83.55.56.82,1.32.82,2.31v4.66Z"/>
    </g>
  </g>
</svg>
