<?xml version="1.0" encoding="UTF-8"?>
<svg id="_레이어_2" data-name="레이어 2" xmlns="http://www.w3.org/2000/svg" viewBox="0 0 580.3 556.23">
  <defs>
    <style>
      .cls-1 {
        fill: #1c96d4;
        stroke-width: 0px;
      }
    </style>
  </defs>
  <g id="_레이어_1-2" data-name="레이어 1">
    <path class="cls-1" d="M524.9,107.56c-17.08-23.47-56.5-25.42-79.97-42.5-23.24-16.91-37.18-53.9-65.1-62.96-26.94-8.75-59.83,12.7-89.68,12.7S227.4-6.65,200.47,2.1c-27.92,9.07-41.86,46.05-65.09,62.96-23.47,17.08-62.89,19.03-79.97,42.5-16.91,23.24-6.69,61.25-15.76,89.16C30.9,223.66,0,248.26,0,278.12s30.9,54.46,39.64,81.4c9.07,27.92-1.15,65.93,15.76,89.16,17.08,23.47,56.5,25.42,79.97,42.5,23.24,16.91,37.18,53.9,65.1,62.96,26.94,8.75,59.83-12.7,89.68-12.7s62.74,21.44,89.68,12.7c27.92-9.07,41.86-46.05,65.1-62.96,23.47-17.08,62.89-19.03,79.97-42.5,16.91-23.24,6.69-61.25,15.76-89.16,8.75-26.94,39.64-51.54,39.64-81.4s-30.9-54.46-39.64-81.4c-9.06-27.92,1.15-65.93-15.76-89.16ZM290.15,425.27c-81.27,0-147.15-65.88-147.15-147.16s65.88-147.16,147.15-147.16c69.27,0,127.2,47.92,142.85,112.37h-70.81c-12.99-26.83-40.23-45.49-72.04-45.49-44.33,0-80.27,35.94-80.27,80.27s35.94,80.27,80.27,80.27c32.9,0,61.09-19.84,73.49-48.16h70.05c-14.66,65.81-73.3,115.05-143.54,115.05Z"/>
  </g>
</svg>