<?xml version="1.0" encoding="UTF-8"?>
<svg id="_레이어_2" data-name="레이어 2" xmlns="http://www.w3.org/2000/svg" viewBox="0 0 197.93 197.93">
  <defs>
    <style>
      .cls-1 {
        fill: #eeb033;
        stroke-width: 0px;
      }
    </style>
  </defs>
  <g id="_레이어_1-2" data-name="레이어 1">
    <g>
      <path class="cls-1" d="M114.07,83.72v-12.37c0-3.17-1.73-4.89-4.89-4.89h-26.47v22.15h26.47c3.74,0,4.89-.86,4.89-4.89Z"/>
      <path class="cls-1" d="M108.6,107.02h-25.89v24.46h27.62c3.16,0,4.89-1.73,4.89-4.89v-14.96c0-4.32-2.59-4.6-6.62-4.6Z"/>
      <path class="cls-1" d="M98.96,0C44.31,0,0,44.31,0,98.96s44.31,98.96,98.96,98.96,98.96-44.31,98.96-98.96S153.62,0,98.96,0ZM135.94,130.33c0,12.08-8.34,20.43-20.43,20.43h-53.51V47.18h52.36c12.08,0,20.43,8.34,20.43,20.43v14.67c0,6.19-2.45,11.65-9.06,15.54,7.19,3.45,10.21,9.35,10.21,15.54v16.98Z"/>
    </g>
  </g>
</svg>