<?xml version="1.0" encoding="UTF-8"?>
<svg id="_레이어_2" data-name="레이어 2" xmlns="http://www.w3.org/2000/svg" viewBox="0 0 286.47 197.93">
  <defs>
    <style>
      .cls-1 {
        fill: #1c7b3a;
        stroke-width: 0px;
      }
    </style>
  </defs>
  <g id="_레이어_1-2" data-name="레이어 1">
    <g>
      <path class="cls-1" d="M108.39,66.74h-26.9v26.33h26.9c3.17,0,4.89-1.73,4.89-4.89v-16.54c0-3.17-1.73-4.89-4.89-4.89Z"/>
      <path class="cls-1" d="M187.5,0h-88.54C44.31,0,0,44.31,0,98.96s44.31,98.96,98.96,98.96h88.54c54.66,0,98.96-44.31,98.96-98.96S242.16,0,187.5,0ZM114.86,150.75l-16.69-38.41h-16.69v38.41h-20.72V47.18h52.79c12.08,0,20.43,8.34,20.43,20.43v24.31c0,9.78-5.47,17.12-14.1,19.56l17.26,39.27h-22.3ZM230.32,150.75h-23.64l-19.18-32.04-19.18,32.04h-23.64l30.99-51.79-30.99-51.79h23.64l19.18,32.04,19.18-32.04h23.64l-30.99,51.79,30.99,51.79Z"/>
    </g>
  </g>
</svg>