<?xml version="1.0" encoding="UTF-8"?>
<svg id="_레이어_2" data-name="레이어 2" xmlns="http://www.w3.org/2000/svg" viewBox="0 0 380.47 197.93">
  <defs>
    <style>
      .cls-1 {
        fill: #1c7b3a;
        stroke-width: 0px;
      }
    </style>
  </defs>
  <g id="_레이어_1-2" data-name="레이어 1">
    <g>
      <path class="cls-1" d="M293.09,66.74h-28.05v64.45h28.05c3.16,0,4.89-1.73,4.89-4.89v-54.66c0-3.16-1.73-4.89-4.89-4.89Z"/>
      <path class="cls-1" d="M108.39,66.74h-26.9v26.33h26.9c3.17,0,4.89-1.73,4.89-4.89v-16.54c0-3.16-1.73-4.89-4.89-4.89Z"/>
      <path class="cls-1" d="M281.51,0H98.96C44.31,0,0,44.31,0,98.96s44.31,98.96,98.96,98.96h182.54c54.66,0,98.96-44.31,98.96-98.96S336.16,0,281.51,0ZM114.86,150.75l-16.69-38.41h-16.69v38.41h-20.72V47.18h52.79c12.08,0,20.43,8.34,20.43,20.43v24.31c0,9.78-5.47,17.12-14.1,19.56l17.26,39.27h-22.3ZM206.78,150.75l-20.14-34.24-20,34.24h-22.59l31.07-53.08-30.21-50.49h24.17l19.28,32.66,19.13-32.66h22.58l-30.06,51.79,30.93,51.79h-24.17ZM318.69,130.33c0,12.08-8.34,20.43-20.43,20.43h-53.95V47.18h53.95c12.08,0,20.43,8.34,20.43,20.43v62.72Z"/>
    </g>
  </g>
</svg>