<?xml version="1.0" encoding="UTF-8"?>
<svg id="_레이어_2" data-name="레이어 2" xmlns="http://www.w3.org/2000/svg" viewBox="0 0 197.93 197.93">
  <defs>
    <style>
      .cls-1 {
        fill: #f8b62d;
      }

      .cls-1, .cls-2 {
        stroke-width: 0px;
      }

      .cls-2 {
        fill: #fff;
      }
    </style>
  </defs>
  <g id="_레이어_1-2" data-name="레이어 1">
    <circle class="cls-1" cx="98.96" cy="98.96" r="98.96"/>
    <path class="cls-2" d="M125.72,97.81c6.62-3.88,9.06-9.35,9.06-15.54v-14.67c0-12.08-8.34-20.43-20.43-20.43h-52.36v103.57h53.51c12.08,0,20.43-8.34,20.43-20.43v-16.98c0-6.18-3.02-12.08-10.21-15.54ZM82.71,66.45h26.47c3.16,0,4.89,1.73,4.89,4.89v12.37c0,4.03-1.15,4.89-4.89,4.89h-26.47v-22.15ZM115.22,126.58c0,3.16-1.73,4.89-4.89,4.89h-27.62v-24.46h25.89c4.03,0,6.62.29,6.62,4.6v14.96Z"/>
  </g>
</svg>
