<?xml version="1.0" encoding="UTF-8"?>
<svg id="_레이어_2" data-name="레이어 2" xmlns="http://www.w3.org/2000/svg" viewBox="0 0 311.94 197.93">
  <defs>
    <style>
      .cls-1 {
        fill: #1c7b3a;
      }

      .cls-1, .cls-2 {
        stroke-width: 0px;
      }

      .cls-2 {
        fill: #fff;
      }
    </style>
  </defs>
  <g id="_레이어_1-2" data-name="레이어 1">
    <path class="cls-1" d="M212.97,0h-114.01C44.31,0,0,44.31,0,98.96s44.31,98.96,98.96,98.96h114.01c54.66,0,98.96-44.31,98.96-98.96S267.63,0,212.97,0Z"/>
    <g>
      <path class="cls-2" d="M146.73,91.92v-24.31c0-12.08-8.34-20.43-20.43-20.43h-52.79v103.57h20.72v-38.41h16.69l16.69,38.41h22.3l-17.26-39.27c8.63-2.44,14.1-9.78,14.1-19.56ZM126.01,88.18c0,3.16-1.73,4.89-4.89,4.89h-26.9v-26.33h26.9c3.16,0,4.89,1.73,4.89,4.89v16.54Z"/>
      <polygon class="cls-2" points="243.05 47.18 219.41 47.18 200.24 79.22 181.06 47.18 157.43 47.18 188.42 98.96 157.43 150.75 181.06 150.75 200.24 118.71 219.41 150.75 243.05 150.75 212.06 98.96 243.05 47.18"/>
    </g>
  </g>
</svg>
