<?xml version="1.0" encoding="UTF-8"?>
<svg id="_레이어_2" data-name="레이어 2" xmlns="http://www.w3.org/2000/svg" viewBox="0 0 197.93 197.93">
  <defs>
    <style>
      .cls-1 {
        fill: #eeb033;
        stroke-width: 0px;
      }
    </style>
  </defs>
  <g id="_레이어_1-2" data-name="레이어 1">
    <path class="cls-1" d="M98.96,0C44.31,0,0,44.31,0,98.96s44.31,98.96,98.96,98.96,98.96-44.31,98.96-98.96S153.62,0,98.96,0ZM135.79,83.72h-20.71v-12.66c0-3.16-1.73-4.89-4.89-4.89h-22.44c-3.17,0-4.89,1.73-4.89,4.89v55.82c0,3.17,1.73,4.89,4.89,4.89h22.44c3.17,0,4.89-1.73,4.89-4.89v-12.66h20.71v16.69c0,12.09-8.34,20.43-20.43,20.43h-32.8c-12.08,0-20.43-8.34-20.43-20.43v-63.87c0-12.08,8.34-20.43,20.43-20.43h32.8c12.08,0,20.43,8.34,20.43,20.43v16.69Z"/>
  </g>
</svg>