<?xml version="1.0" encoding="UTF-8"?>
<svg id="_레이어_2" data-name="레이어 2" xmlns="http://www.w3.org/2000/svg" viewBox="0 0 197.93 197.93">
  <defs>
    <style>
      .cls-1 {
        fill: #c1c0c0;
        stroke-width: 0px;
      }
    </style>
  </defs>
  <g id="_레이어_1-2" data-name="레이어 1">
    <path class="cls-1" d="M98.96,0C44.31,0,0,44.31,0,98.96s44.31,98.96,98.96,98.96,98.96-44.31,98.96-98.96S153.62,0,98.96,0ZM159.97,85.52l-23.02,22.44c-1.6,1.56-2.33,3.81-1.95,6.01l5.43,31.68c.95,5.55-4.87,9.78-9.85,7.16l-28.45-14.96c-1.98-1.04-4.34-1.04-6.32,0l-28.45,14.96c-4.98,2.62-10.81-1.61-9.85-7.16l5.43-31.68c.38-2.2-.35-4.45-1.95-6.01l-23.02-22.44c-4.03-3.93-1.81-10.78,3.76-11.58l31.81-4.62c2.21-.32,4.12-1.71,5.11-3.71l14.23-28.82c2.49-5.05,9.69-5.05,12.18,0l14.23,28.82c.99,2,2.9,3.39,5.11,3.71l31.81,4.62c5.57.81,7.8,7.66,3.77,11.58Z"/>
  </g>
</svg>