<?xml version="1.0" encoding="UTF-8"?>
<svg id="_레이어_2" data-name="레이어 2" xmlns="http://www.w3.org/2000/svg" viewBox="0 0 197.93 197.93">
  <defs>
    <style>
      .cls-1 {
        fill: #24559e;
      }

      .cls-1, .cls-2 {
        stroke-width: 0px;
      }

      .cls-2 {
        fill: #c4181f;
      }
    </style>
  </defs>
  <g id="_레이어_1-2" data-name="레이어 1">
    <g>
      <circle class="cls-1" cx="98.96" cy="98.96" r="98.96"/>
      <path class="cls-2" d="M191.19,79.05c-.3-17.02-10.13-35.3-10.29-35.6C163.1,17.23,133.05,0,98.96,0,44.31,0,0,44.31,0,98.96c0,20.27,6.1,39.11,16.55,54.8C-19.85,86.36,42.6,38.6,81.81,31.25c39.22-7.35,56.38,16.55,60.05,35.54,3.68,19-9.19,41.98-30.33,42.59-21.14.61-5.21-13.79-21.45-19.61-16.24-5.82-51.47,10.11-36.77,49.94,14.71,39.83,71.39,32.78,103.56,11.03,32.17-21.75,34.62-54.54,34.32-71.7Z"/>
    </g>
  </g>
</svg>